<svg width="39" height="59" viewBox="0 0 39 59" fill="none" xmlns="http://www.w3.org/2000/svg">
<path d="M5 1.5H6.78175C8.88761 1.5 10.9539 2.07232 12.7596 3.15578V3.15578C14.2348 4.04087 15.495 5.2425 16.4493 6.6739L16.8026 7.20391C17.5965 8.3947 18.209 9.6968 18.6203 11.0676L18.7566 11.522C19.2496 13.1652 19.5 14.8716 19.5 16.5872V19.5V44.85C19.5 46.2685 19.2119 47.6723 18.6531 48.9762V48.9762C18.2204 49.9858 17.6316 50.921 16.9083 51.7477L15.085 53.8314C14.6955 54.2766 14.2746 54.6932 13.8255 55.0781V55.0781C11.9826 56.6578 9.71583 57.6605 7.30734 57.9616L7 58H5" stroke="#FBEFEF" stroke-width="2"/>
<path d="M5 0.5V16M5 16V21.0019C5 22.9735 5.45905 24.9181 6.3408 26.6816V26.6816C6.7788 27.5576 7.31665 28.38 7.94364 29.1324L8.11131 29.3336C9.03229 30.4387 10.1079 31.4053 11.3049 32.2033L12.8104 33.2069C13.5999 33.7333 14.4561 34.1521 15.3564 34.4521V34.4521C16.445 34.815 17.585 35 18.7325 35H20.8072C21.9297 35 23.0462 34.8361 24.1214 34.5136V34.5136C26.3234 33.853 28.2778 32.5493 29.7337 30.77L30.7114 29.575C31.5647 28.532 32.2414 27.3564 32.7145 26.0946V26.0946C33.2339 24.7095 33.5 23.2423 33.5 21.7629V1.50001H24.1805C22.7309 1.50001 21.2853 1.65315 19.8679 1.95689L19.0409 2.13411C16.3852 2.70317 13.9035 3.89711 11.8016 5.61692V5.61692C10.2786 6.86294 8.9824 8.36268 7.97002 10.05L6.5 12.5L5 16Z" stroke="#FBEFEF" stroke-width="2"/>
<path d="M5.5 40.5L8 43.5L8.3359 44.0038C9.42098 45.6315 10 47.5438 10 49.5V49.5V51L7.23633 49.7438C5.45177 48.9326 3.9459 47.6134 2.90696 45.9511V45.9511C2.30671 44.9907 1.87446 43.9351 1.62878 42.8295L1.3901 41.7555C1.13081 40.5887 1 39.397 1 38.2017V35L4.07698 35.6838C5.01949 35.8932 5.92208 36.2532 6.75 36.75V36.75C7.57792 37.2468 8.32034 37.8737 8.94868 38.6068L9.54392 39.3012C10.509 40.4272 11.2972 41.6934 11.8814 43.0565L11.9845 43.2973C12.3276 44.0978 12.6061 44.9245 12.8174 45.7695L12.8943 46.0771C13.2966 47.6863 13.5 49.3413 13.5 51V51" stroke="#FBEFEF" stroke-width="2" stroke-linecap="round" stroke-linejoin="round"/>
<path d="M22 48L23.3346 43.9962C23.7766 42.6701 24.3743 41.401 25.1152 40.2157V40.2157C26.0334 38.7465 27.1722 37.4118 28.476 36.271V36.271C29.8111 35.1028 31.3244 34.1336 32.9456 33.4131V33.4131C34.3097 32.8068 35.7451 32.3758 37.2176 32.1304L38 32V37L37.7488 39.2607C37.5846 40.7388 37.1281 42.1695 36.4058 43.4696V43.4696C35.4837 45.1293 34.1554 46.5279 32.5453 47.5342L32.2623 47.7111C31.4237 48.2352 30.526 48.658 29.5879 48.9707L26.5 50V48.1798C26.5 46.4237 26.9583 44.698 27.8295 43.1733V43.1733C28.2745 42.3946 28.8213 41.6787 29.4555 41.0445L30.2252 40.2748C31.073 39.427 32.0024 38.665 33 38V38" stroke="#FBEFEF" stroke-width="2" stroke-linecap="round" stroke-linejoin="round"/>
</svg>
