<svg width="820" height="1141" viewBox="0 0 820 1141" fill="none" xmlns="http://www.w3.org/2000/svg">
<g filter="url(#filter0_d_169_289)">
<path d="M342.65 1064.07L360.001 999.219L370.907 1002.17L353.061 1068L342.65 1064.07Z" fill="#58904F" stroke="#58904F"/>
<path d="M375.369 1056.7L379.335 996.271H390.241L386.771 1056.7H375.369Z" fill="#58904F" stroke="#58904F"/>
<path d="M399.164 1062.1V998.236H413.54V1062.1H399.164Z" fill="#58904F" stroke="#58904F"/>
<path d="M439.872 1037.27L437.83 973.43L452.694 972.963L454.736 1036.8L439.872 1037.27Z" fill="#58904F" stroke="#58904F"/>
<path d="M470.939 1053.81L458.586 991.124L473.182 988.299L485.535 1050.98L470.939 1053.81Z" fill="#58904F" stroke="#58904F"/>
<path d="M420.04 1052.96L417.953 989.125L430.835 988.711L432.922 1052.55L420.04 1052.96Z" fill="#58904F" stroke="#58904F"/>
<path d="M186 525.394L164.188 468.404L142.542 393.323C137.892 377.191 137.703 360.1 141.996 343.869C146.455 327.01 155.573 311.748 168.305 299.831L196.771 273.187C206.351 264.22 217.602 257.226 229.883 252.604L281.867 233.04C287.018 231.101 292.32 229.591 297.719 228.525L397.165 208.889C411.54 206.051 426.363 206.406 440.585 209.93L496.324 223.74L551.349 244.374L608.834 270.519C618.696 275.004 627.763 281.062 635.682 288.455L655.799 307.24C673.602 323.862 683.708 347.126 683.708 371.482C683.708 381.009 682.159 390.472 679.122 399.501L655.947 468.404L635.127 525.394L611.828 574.032L586.99 613.579C583.398 619.298 579.236 624.638 574.568 629.518L551.301 653.841C547.375 657.945 543.105 661.708 538.54 665.088L514.052 683.216C507.545 688.034 500.477 692.043 493.003 695.156L470.05 704.717C455.495 712.919 449.079 730.498 454.927 746.148L533.357 956.014C533.771 957.124 533.778 958.345 533.377 959.459L531.994 963.297C531.71 964.085 530.962 964.611 530.124 964.611H525.668C512.65 964.611 500.855 972.286 495.583 984.189C495.421 984.553 495.133 984.846 494.772 985.014L455.806 1003.13C455.406 1003.32 454.947 1003.33 454.539 1003.16L451.212 1001.79C438.45 996.541 423.772 1001.57 416.908 1013.54C416.663 1013.97 416.208 1014.23 415.716 1014.23H360.593C358.458 1014.23 356.559 1012.88 355.864 1010.86L349.809 993.253C349.663 992.828 349.478 992.417 349.259 992.025L349.104 991.749C347.873 989.553 345.552 988.193 343.034 988.193C341.199 988.193 339.439 988.917 338.136 990.209L336.804 991.529C334.934 993.382 332.145 993.953 329.697 992.983C329.082 992.739 328.506 992.404 327.99 991.989L284.488 957.045C282.808 955.696 282.182 953.422 282.933 951.403L359.747 744.957C365.352 729.893 359.414 712.974 345.623 704.717L319.845 690.469L286.448 667.15C279.657 662.407 273.481 656.84 268.062 650.575L243.504 622.179L211.282 574.032L186 525.394Z" fill="white"/>
<path d="M206.961 258.957C217.349 247.657 230.199 238.9 244.516 233.364L315.542 205.9L388.201 188.387C405.603 184.193 423.812 184.747 440.927 189.991L494.817 206.502C500.004 208.091 505.054 210.1 509.916 212.509L578.976 246.724C587.566 250.98 595.499 256.449 602.532 262.963L626.25 284.929C638.881 296.628 648.278 311.389 653.531 327.783L661.999 354.21C663.886 360.102 664.365 366.354 663.396 372.465C660.489 390.787 645.232 404.623 626.714 405.73L408.333 418.784L199.083 406.048C177.42 404.729 159.098 389.549 153.775 368.508C151.507 359.546 151.777 350.129 154.552 341.31L159.992 324.026C164.398 310.03 171.829 297.174 181.759 286.372L206.961 258.957Z" fill="#2C6636"/>
<path d="M197.343 416.483L192.318 395C192.135 394.218 192.489 393.412 193.188 393.018L199.651 389.372C205.377 386.141 211.672 384.027 218.199 383.142C227.073 381.94 236.117 383.042 244.456 386.344L248.263 387.851C256.574 391.142 264.157 396.039 270.572 402.26L272.461 404.091C279.667 411.078 285.511 419.337 289.692 428.445L296.81 443.95L301.085 457.429C301.48 458.674 300.593 459.951 299.287 460.018L286.015 460.702L268.472 461.864C257.888 462.564 247.263 461.073 237.267 457.483L232.365 455.723C224.346 452.843 217.1 448.144 211.203 441.999C204.372 434.88 199.584 426.066 197.343 416.483Z" fill="#58904F"/>
<path d="M196.02 398.599C195.037 398.033 194.632 396.823 195.079 395.786C195.614 394.547 197.126 394.07 198.285 394.775L295.093 453.629C295.184 453.684 295.268 453.751 295.342 453.827L295.952 454.453C296.328 454.838 296.166 455.48 295.654 455.64C295.461 455.7 295.252 455.677 295.077 455.576L196.02 398.599Z" fill="#436F40"/>
<path d="M335.153 182.627L330.129 161.144C329.946 160.362 330.3 159.556 330.998 159.162L337.461 155.516C343.188 152.285 349.482 150.171 356.01 149.287C364.883 148.084 373.927 149.187 382.267 152.488L386.073 153.996C394.385 157.286 401.967 162.183 408.383 168.404L410.272 170.235C417.478 177.222 423.321 185.481 427.503 194.589L434.621 210.094L438.896 223.573C439.29 224.818 438.404 226.095 437.098 226.162L423.825 226.846L406.283 228.008C395.699 228.709 385.074 227.217 375.078 223.627L370.176 221.867C362.156 218.987 354.911 214.288 349.013 208.143C342.182 201.024 337.394 192.21 335.153 182.627Z" fill="#58904F"/>
<path d="M333.833 164.743C332.849 164.177 332.444 162.967 332.892 161.93C333.426 160.691 334.938 160.214 336.097 160.919L432.905 219.773C432.996 219.828 433.08 219.895 433.154 219.971L433.765 220.597C434.14 220.982 433.978 221.624 433.466 221.784C433.274 221.844 433.065 221.821 432.889 221.72L333.833 164.743Z" fill="#436F40"/>
<path d="M254.847 273.025L249.822 251.542C249.639 250.761 249.993 249.954 250.692 249.56L257.155 245.914C262.881 242.684 269.176 240.57 275.703 239.685C284.577 238.482 293.621 239.585 301.96 242.887L305.767 244.394C314.078 247.685 321.661 252.582 328.076 258.802L329.965 260.634C337.171 267.621 343.015 275.88 347.196 284.988L354.314 300.492L358.589 313.971C358.984 315.216 358.097 316.493 356.791 316.56L343.519 317.245L325.976 318.406C315.392 319.107 304.767 317.616 294.771 314.026L289.869 312.265C281.85 309.386 274.604 304.687 268.707 298.541C261.876 291.423 257.088 282.608 254.847 273.025Z" fill="#58904F"/>
<path d="M253.524 255.141C252.541 254.575 252.136 253.366 252.583 252.329C253.118 251.09 254.63 250.613 255.789 251.317L352.597 310.171C352.688 310.226 352.772 310.293 352.846 310.369L353.456 310.995C353.831 311.38 353.67 312.023 353.157 312.183C352.965 312.242 352.756 312.219 352.581 312.119L253.524 255.141Z" fill="#436F40"/>
<path d="M415.462 254.356L410.437 232.873C410.255 232.091 410.608 231.285 411.307 230.891L417.77 227.245C423.496 224.014 429.791 221.9 436.318 221.016C445.192 219.813 454.236 220.916 462.575 224.217L466.382 225.725C474.693 229.015 482.276 233.912 488.691 240.133L490.58 241.964C497.786 248.951 503.63 257.21 507.811 266.318L514.929 281.823L519.204 295.302C519.599 296.547 518.712 297.824 517.407 297.891L504.134 298.575L486.592 299.737C476.007 300.438 465.383 298.946 455.386 295.356L450.485 293.596C442.465 290.716 435.219 286.017 429.322 279.872C422.491 272.753 417.703 263.939 415.462 254.356Z" fill="#58904F"/>
<path d="M414.14 236.472C413.156 235.906 412.751 234.696 413.198 233.659C413.733 232.42 415.245 231.943 416.404 232.648L513.212 291.502C513.303 291.557 513.387 291.624 513.461 291.7L514.071 292.326C514.447 292.711 514.285 293.353 513.773 293.513C513.58 293.573 513.371 293.55 513.196 293.449L414.14 236.472Z" fill="#436F40"/>
<path d="M590.95 283.834L585.926 262.351C585.743 261.569 586.097 260.763 586.795 260.369L593.258 256.723C598.985 253.492 605.279 251.378 611.807 250.494C620.68 249.291 629.724 250.394 638.064 253.695L641.87 255.203C650.182 258.493 657.764 263.39 664.18 269.611L666.069 271.442C673.275 278.429 679.118 286.688 683.3 295.796L690.418 311.301L694.693 324.78C695.087 326.025 694.201 327.302 692.895 327.369L679.622 328.053L662.08 329.215C651.495 329.916 640.871 328.424 630.875 324.834L625.973 323.074C617.953 320.194 610.708 315.495 604.81 309.35C597.979 302.231 593.191 293.417 590.95 283.834Z" fill="#58904F"/>
<path d="M589.628 265.949C588.644 265.383 588.239 264.174 588.686 263.137C589.221 261.898 590.733 261.421 591.892 262.125L688.7 320.979C688.791 321.035 688.875 321.101 688.949 321.177L689.56 321.803C689.935 322.188 689.773 322.831 689.261 322.991C689.069 323.051 688.86 323.027 688.684 322.927L589.628 265.949Z" fill="#436F40"/>
<path d="M354.983 415.5L349.959 394.017C349.776 393.235 350.13 392.429 350.828 392.035L357.291 388.389C363.018 385.158 369.312 383.044 375.84 382.16C384.713 380.957 393.757 382.06 402.097 385.361L405.903 386.869C414.215 390.159 421.797 395.056 428.213 401.277L430.102 403.108C437.308 410.095 443.151 418.354 447.333 427.462L454.451 442.967L458.726 456.446C459.121 457.691 458.234 458.968 456.928 459.035L443.655 459.719L426.113 460.881C415.529 461.582 404.904 460.09 394.908 456.5L390.006 454.74C381.986 451.86 374.741 447.161 368.844 441.016C362.013 433.897 357.225 425.083 354.983 415.5Z" fill="#58904F"/>
<path d="M353.661 397.616C352.677 397.05 352.272 395.84 352.72 394.803C353.254 393.564 354.766 393.087 355.926 393.792L452.734 452.646C452.825 452.701 452.908 452.768 452.983 452.844L453.593 453.47C453.968 453.855 453.806 454.498 453.294 454.657C453.102 454.717 452.893 454.694 452.718 454.593L353.661 397.616Z" fill="#436F40"/>
<path d="M474.933 442.03L479.957 420.547C480.14 419.765 479.786 418.959 479.088 418.565L472.625 414.919C466.898 411.689 460.604 409.575 454.076 408.69C445.203 407.487 436.159 408.59 427.819 411.892L424.013 413.399C415.701 416.69 408.119 421.587 401.703 427.807L399.814 429.639C392.608 436.626 386.765 444.885 382.583 453.993L375.465 469.497L371.19 482.976C370.795 484.221 371.682 485.498 372.988 485.565L386.261 486.25L403.803 487.411C414.387 488.112 425.012 486.62 435.008 483.031L439.91 481.27C447.93 478.39 455.175 473.692 461.073 467.546C467.903 460.428 472.691 451.613 474.933 442.03Z" fill="#58904F"/>
<path d="M476.255 424.146C477.239 423.58 477.644 422.37 477.196 421.334C476.662 420.095 475.15 419.617 473.99 420.322L377.182 479.176C377.091 479.231 377.008 479.298 376.933 479.374L376.323 480C375.948 480.385 376.11 481.028 376.622 481.187C376.814 481.247 377.023 481.224 377.198 481.123L476.255 424.146Z" fill="#436F40"/>
<path d="M473.939 194.418L478.963 172.935C479.146 172.154 478.792 171.347 478.093 170.953L471.63 167.307C465.904 164.077 459.61 161.963 453.082 161.078C444.209 159.875 435.165 160.978 426.825 164.28L423.019 165.787C414.707 169.078 407.125 173.975 400.709 180.195L398.82 182.027C391.614 189.014 385.771 197.273 381.589 206.381L374.471 221.885L370.196 235.364C369.801 236.609 370.688 237.886 371.994 237.954L385.267 238.638L402.809 239.799C413.393 240.5 424.018 239.009 434.014 235.419L438.916 233.659C446.936 230.779 454.181 226.08 460.078 219.934C466.909 212.816 471.697 204.001 473.939 194.418Z" fill="#58904F"/>
<path d="M475.261 176.534C476.245 175.968 476.65 174.759 476.202 173.722C475.668 172.483 474.155 172.006 472.996 172.71L376.188 231.564C376.097 231.62 376.014 231.686 375.939 231.762L375.329 232.388C374.954 232.773 375.115 233.416 375.628 233.576C375.82 233.636 376.029 233.612 376.204 233.512L475.261 176.534Z" fill="#436F40"/>
<path d="M512.626 436.134L507.601 414.651C507.419 413.869 507.772 413.063 508.471 412.669L514.934 409.023C520.66 405.793 526.955 403.679 533.483 402.794C542.356 401.591 551.4 402.694 559.739 405.996L563.546 407.503C571.857 410.794 579.44 415.691 585.855 421.911L587.744 423.743C594.951 430.73 600.794 438.989 604.975 448.097L612.093 463.601L616.368 477.08C616.763 478.325 615.877 479.602 614.571 479.669L601.298 480.354L583.756 481.515C573.171 482.216 562.547 480.724 552.55 477.135L547.649 475.374C539.629 472.494 532.384 467.796 526.486 461.65C519.655 454.532 514.867 445.717 512.626 436.134Z" fill="#58904F"/>
<path d="M511.304 418.25C510.32 417.684 509.915 416.474 510.362 415.438C510.897 414.199 512.409 413.721 513.568 414.426L610.376 473.28C610.467 473.335 610.551 473.402 610.625 473.478L611.235 474.104C611.611 474.489 611.449 475.132 610.937 475.291C610.744 475.351 610.535 475.328 610.36 475.227L511.304 418.25Z" fill="#436F40"/>
<path d="M504.692 193.435L499.668 171.952C499.485 171.171 499.839 170.364 500.537 169.97L507 166.324C512.727 163.094 519.021 160.98 525.549 160.095C534.422 158.892 543.466 159.995 551.806 163.297L555.612 164.804C563.924 168.095 571.506 172.992 577.922 179.212L579.811 181.044C587.017 188.031 592.86 196.29 597.042 205.398L604.16 220.902L608.435 234.381C608.83 235.626 607.943 236.903 606.637 236.971L593.364 237.655L575.822 238.816C565.238 239.517 554.613 238.026 544.617 234.436L539.715 232.676C531.695 229.796 524.45 225.097 518.552 218.951C511.722 211.833 506.934 203.019 504.692 193.435Z" fill="#58904F"/>
<path d="M503.37 175.551C502.386 174.985 501.981 173.776 502.429 172.739C502.963 171.5 504.475 171.023 505.635 171.727L602.443 230.581C602.534 230.637 602.617 230.703 602.692 230.779L603.302 231.405C603.677 231.79 603.515 232.433 603.003 232.593C602.811 232.653 602.602 232.629 602.427 232.529L503.37 175.551Z" fill="#436F40"/>
<path d="M645.477 430.239L640.453 408.756C640.27 407.974 640.624 407.168 641.323 406.773L647.786 403.128C653.512 399.897 659.806 397.783 666.334 396.898C675.207 395.695 684.251 396.798 692.591 400.1L696.397 401.607C704.709 404.898 712.291 409.795 718.707 416.016L720.596 417.847C727.802 424.834 733.645 433.093 737.827 442.201L744.945 457.706L749.22 471.185C749.615 472.429 748.728 473.707 747.422 473.774L734.149 474.458L716.607 475.62C706.023 476.32 695.398 474.829 685.402 471.239L680.5 469.479C672.48 466.599 665.235 461.9 659.338 455.755C652.507 448.636 647.719 439.822 645.477 430.239Z" fill="#58904F"/>
<path d="M644.157 412.355C643.173 411.789 642.768 410.579 643.216 409.542C643.75 408.303 645.263 407.826 646.422 408.531L743.23 467.385C743.321 467.44 743.404 467.506 743.479 467.583L744.089 468.209C744.464 468.594 744.303 469.236 743.79 469.396C743.598 469.456 743.389 469.433 743.214 469.332L644.157 412.355Z" fill="#436F40"/>
<path d="M142.99 386.518L165.35 388.223C166.131 388.282 166.781 388.848 166.948 389.614L168.518 396.811C169.914 403.211 170.062 409.82 168.953 416.276C167.455 425.002 163.706 433.187 158.076 440.021L155.344 443.338C149.728 450.156 142.822 455.797 135.02 459.939L132.452 461.303C123.611 465.997 113.981 469.026 104.044 470.238L86.8547 472.334H72.5875C71.2783 472.334 70.3221 471.097 70.652 469.83L73.9658 457.104L78.0613 440.362C80.5908 430.021 85.2539 420.323 91.7515 411.89L94.7381 408.014C99.9863 401.203 106.743 395.702 114.478 391.945C123.333 387.643 133.173 385.77 142.99 386.518Z" fill="#58904F"/>
<path d="M160.758 390.616C161.586 389.866 162.842 389.846 163.693 390.57C164.735 391.454 164.741 393.06 163.706 393.952L78.054 467.808C77.9731 467.877 77.8837 467.937 77.7879 467.984L76.9848 468.382C76.5081 468.618 75.9492 468.271 75.9492 467.739C75.9492 467.537 76.0349 467.344 76.185 467.208L160.758 390.616Z" fill="#436F40"/>
<path d="M187.605 252.887L209.965 254.592C210.746 254.651 211.396 255.216 211.563 255.982L213.134 263.18C214.53 269.58 214.678 276.189 213.569 282.645C212.07 291.371 208.321 299.555 202.692 306.389L199.959 309.707C194.344 316.524 187.437 322.166 179.635 326.308L177.068 327.671C168.226 332.366 158.597 335.394 148.66 336.606L131.47 338.703H117.203C115.894 338.703 114.937 337.466 115.267 336.199L118.581 323.473L122.677 306.73C125.206 296.389 129.869 286.692 136.367 278.259L139.353 274.383C144.602 267.572 151.359 262.071 159.093 258.313C167.949 254.011 177.788 252.139 187.605 252.887Z" fill="#58904F"/>
<path d="M205.374 256.985C206.202 256.235 207.457 256.215 208.309 256.938C209.35 257.823 209.356 259.428 208.321 260.32L122.669 334.176C122.588 334.246 122.499 334.305 122.403 334.353L121.6 334.751C121.123 334.987 120.564 334.64 120.564 334.108C120.564 333.906 120.65 333.712 120.8 333.576L205.374 256.985Z" fill="#436F40"/>
<path d="M305.59 152.663L327.949 154.367C328.731 154.427 329.381 154.992 329.548 155.758L331.118 162.956C332.514 169.355 332.662 175.965 331.553 182.42C330.054 191.147 326.305 199.331 320.676 206.165L317.944 209.483C312.328 216.3 305.421 221.942 297.62 226.084L295.052 227.447C286.21 232.142 276.581 235.17 266.644 236.382L249.454 238.479H235.187C233.878 238.479 232.922 237.242 233.252 235.975L236.565 223.249L240.661 206.506C243.19 196.165 247.854 186.467 254.351 178.035L257.338 174.159C262.586 167.347 269.343 161.847 277.077 158.089C285.933 153.787 295.773 151.914 305.59 152.663Z" fill="#58904F"/>
<path d="M323.358 156.761C324.186 156.011 325.442 155.991 326.293 156.714C327.334 157.599 327.34 159.204 326.306 160.096L240.654 233.952C240.573 234.022 240.483 234.081 240.387 234.129L239.584 234.527C239.108 234.763 238.549 234.416 238.549 233.884C238.549 233.681 238.634 233.488 238.785 233.352L323.358 156.761Z" fill="#436F40"/>
<path d="M525.691 274.504L548.051 276.208C548.832 276.268 549.482 276.833 549.649 277.599L551.219 284.796C552.616 291.196 552.763 297.805 551.655 304.261C550.156 312.987 546.407 321.172 540.778 328.006L538.045 331.323C532.429 338.141 525.523 343.783 517.721 347.925L515.154 349.288C506.312 353.982 496.683 357.011 486.746 358.223L469.556 360.32H455.289C453.979 360.32 453.023 359.083 453.353 357.816L456.667 345.09L460.762 328.347C463.292 318.006 467.955 308.308 474.453 299.875L477.439 295.999C482.688 289.188 489.445 283.688 497.179 279.93C506.035 275.628 515.874 273.755 525.691 274.504Z" fill="#58904F"/>
<path d="M543.458 278.602C544.286 277.852 545.541 277.832 546.393 278.555C547.434 279.44 547.44 281.045 546.405 281.937L460.753 355.793C460.672 355.863 460.583 355.922 460.487 355.969L459.684 356.367C459.207 356.604 458.648 356.257 458.648 355.725C458.648 355.522 458.734 355.329 458.884 355.193L543.458 278.602Z" fill="#436F40"/>
<path d="M361.109 245.026L383.469 246.73C384.25 246.79 384.9 247.355 385.067 248.121L386.637 255.318C388.034 261.718 388.181 268.327 387.073 274.783C385.574 283.509 381.825 291.694 376.196 298.528L373.463 301.845C367.847 308.663 360.941 314.305 353.139 318.447L350.572 319.81C341.73 324.504 332.1 327.533 322.164 328.745L304.974 330.842H290.707C289.397 330.842 288.441 329.605 288.771 328.338L292.085 315.612L296.18 298.869C298.71 288.528 303.373 278.83 309.871 270.397L312.857 266.521C318.105 259.71 324.862 254.21 332.597 250.452C341.453 246.15 351.292 244.277 361.109 245.026Z" fill="#58904F"/>
<path d="M378.877 249.124C379.706 248.374 380.961 248.354 381.813 249.078C382.854 249.962 382.86 251.567 381.825 252.46L296.173 326.315C296.092 326.385 296.003 326.444 295.907 326.492L295.104 326.89C294.627 327.126 294.068 326.779 294.068 326.247C294.068 326.045 294.154 325.852 294.304 325.716L378.877 249.124Z" fill="#436F40"/>
<path d="M314.509 377.675L336.869 379.38C337.651 379.439 338.3 380.005 338.468 380.77L340.038 387.968C341.434 394.368 341.582 400.977 340.473 407.433C338.974 416.159 335.225 424.343 329.596 431.177L326.864 434.495C321.248 441.312 314.341 446.954 306.54 451.096L303.972 452.459C295.13 457.154 285.501 460.182 275.564 461.394L258.374 463.491H244.107C242.798 463.491 241.842 462.254 242.172 460.987L245.485 448.261L249.581 431.518C252.11 421.177 256.773 411.48 263.271 403.047L266.258 399.171C271.506 392.36 278.263 386.859 285.997 383.102C294.853 378.799 304.692 376.927 314.509 377.675Z" fill="#58904F"/>
<path d="M332.278 381.773C333.106 381.023 334.362 381.003 335.213 381.726C336.254 382.611 336.26 384.216 335.225 385.108L249.574 458.964C249.493 459.034 249.403 459.093 249.307 459.141L248.504 459.539C248.028 459.775 247.469 459.428 247.469 458.896C247.469 458.694 247.554 458.501 247.705 458.365L332.278 381.773Z" fill="#436F40"/>
<path d="M271.264 134.816L294.068 132.851L296.051 115.164L298.529 100.917L300.391 94.5919C301.46 90.9582 302.916 87.4494 304.732 84.1256L306.633 80.6487C307.834 78.4509 309.348 76.4391 311.126 74.676L314 71.8277C315.553 70.2892 317.505 69.2156 319.635 68.7284C321.719 68.2519 323.893 68.3544 325.922 69.0248L326.047 69.0662C327.837 69.6575 329.465 70.6557 330.804 71.9825L332.472 73.6352C333.961 75.1114 335.234 76.7915 336.252 78.6251L338.172 82.0864C339.502 84.4825 340.632 86.9839 341.552 89.5653L343.167 94.1024C345.131 99.6172 346.607 105.294 347.578 111.067L349.093 120.077L366.444 113.199L370.493 112.028C375.717 110.519 381.054 109.437 386.453 108.795L390.734 108.286H395.714C398.647 108.286 401.553 108.841 404.28 109.922L405.707 110.488C406.955 110.982 408.119 111.664 409.161 112.509L409.984 113.176C411.955 114.774 413.274 117.036 413.695 119.538C413.918 120.867 413.882 122.228 413.587 123.543L413.042 125.973C412.054 128.911 410.745 131.733 409.139 134.385L408.043 136.195C405.437 140.5 402.312 144.468 398.737 148.01L391.726 154.959L374.871 168.224L377.845 175.593L381.811 187.876L384.786 198.193L386.769 210.475L387.145 226.895C387.224 230.342 386.805 233.782 385.902 237.109L384.72 241.459C384.11 243.702 383.011 245.783 381.502 247.55L380.364 248.883C379.046 250.427 377.293 251.536 375.334 252.065C373.729 252.499 372.041 252.529 370.421 252.151L368.455 251.693C365.826 251.079 363.367 249.885 361.259 248.198L356.205 244.153C353.129 241.69 350.377 238.848 348.015 235.693L344.654 231.203C341.67 227.217 339.019 222.992 336.729 218.571L330.752 207.036L326.786 215.388L317.485 231.611C315.429 235.197 313.007 238.561 310.258 241.648C308.061 244.117 305.663 246.399 303.089 248.471L299.025 251.744L296.379 253.413C294.526 254.581 292.459 255.367 290.298 255.724L289.565 255.845C288.279 256.057 286.968 256.057 285.682 255.845C283.084 255.416 280.701 254.138 278.906 252.211L277.958 251.193C276.485 249.611 275.348 247.748 274.616 245.715L274.13 244.366C273.543 242.739 273.142 241.051 272.935 239.335L272.431 235.177C271.985 231.491 271.882 227.771 272.123 224.066L272.752 214.406L275.726 198.193L279.196 186.893L270.273 185.419L258.497 182.826C254.462 181.937 250.532 180.622 246.775 178.903L243.11 177.227C240.74 176.143 238.527 174.742 236.534 173.062L232.446 169.619C230.608 168.071 229.289 165.998 228.665 163.678C228 161.208 228.158 158.589 229.116 156.217L229.371 155.585C230.189 153.559 231.476 151.756 233.127 150.325L235.611 148.17C237.558 146.481 239.734 145.075 242.073 143.993L246.96 141.733C251.253 139.748 255.748 138.233 260.367 137.216L271.264 134.816Z" fill="#AEAEFF"/>
<ellipse cx="327.777" cy="161.346" rx="20.8205" ry="20.6343" fill="#F3F340"/>
<rect x="340.666" y="703.734" width="130.872" height="29.4776" rx="10" fill="#FFC7E3"/>
<path d="M178.624 251.816L201.427 249.851L203.41 232.164L205.889 217.917L207.75 211.592C208.82 207.958 210.275 204.449 212.092 201.126L213.992 197.649C215.193 195.451 216.707 193.439 218.486 191.676L221.36 188.828C222.912 187.289 224.864 186.216 226.995 185.728C229.078 185.252 231.252 185.354 233.281 186.025L233.407 186.066C235.197 186.657 236.825 187.656 238.164 188.983L239.831 190.635C241.321 192.111 242.593 193.791 243.611 195.625L245.532 199.086C246.861 201.482 247.992 203.984 248.911 206.565L250.527 211.102C252.491 216.617 253.967 222.294 254.938 228.067L256.453 237.077L273.803 230.199L277.853 229.028C283.076 227.519 288.414 226.437 293.812 225.795L298.094 225.286H303.073C306.006 225.286 308.913 225.841 311.639 226.922L313.067 227.488C314.314 227.982 315.479 228.664 316.521 229.509L317.344 230.176C319.314 231.774 320.634 234.036 321.054 236.538C321.278 237.867 321.241 239.228 320.946 240.543L320.401 242.973C319.413 245.911 318.104 248.733 316.498 251.385L315.402 253.195C312.796 257.5 309.671 261.468 306.097 265.01L299.085 271.959L282.231 285.224L285.205 292.593L289.171 304.876L292.145 315.193L294.128 327.475L294.504 343.895C294.584 347.342 294.165 350.782 293.261 354.109L292.079 358.459C291.47 360.702 290.371 362.783 288.861 364.55L287.723 365.883C286.406 367.427 284.652 368.536 282.693 369.065C281.088 369.499 279.4 369.529 277.78 369.151L275.814 368.693C273.185 368.079 270.726 366.885 268.618 365.198L263.565 361.153C260.488 358.69 257.736 355.848 255.375 352.693L252.013 348.203C249.029 344.217 246.379 339.992 244.088 335.571L238.111 324.036L234.145 332.388L224.844 348.611C222.788 352.197 220.367 355.561 217.618 358.648C215.42 361.117 213.023 363.399 210.449 365.471L206.384 368.744L203.738 370.413C201.886 371.581 199.818 372.367 197.658 372.724L196.924 372.845C195.639 373.057 194.327 373.057 193.041 372.845C190.443 372.416 188.061 371.138 186.266 369.211L185.318 368.193C183.845 366.611 182.708 364.748 181.975 362.715L181.489 361.366C180.903 359.739 180.502 358.051 180.294 356.335L179.79 352.177C179.344 348.491 179.241 344.771 179.482 341.066L180.111 331.406L183.085 315.193L186.555 303.893L177.632 302.419L165.856 299.826C161.821 298.937 157.892 297.622 154.134 295.903L150.47 294.227C148.099 293.143 145.887 291.742 143.893 290.062L139.805 286.619C137.968 285.071 136.648 282.998 136.024 280.678C135.359 278.208 135.518 275.589 136.475 273.217L136.73 272.585C137.548 270.559 138.835 268.756 140.486 267.325L142.971 265.17C144.918 263.481 147.093 262.075 149.432 260.993L154.32 258.733C158.612 256.748 163.108 255.233 167.727 254.216L178.624 251.816Z" fill="#C6E3FF"/>
<ellipse cx="230.18" cy="276.872" rx="20.8205" ry="20.6343" fill="#F3F340"/>
<rect x="339.674" y="704.717" width="11.8974" height="9.82587" fill="#FFC7E3"/>
<path d="M121.555 363.268L144.359 361.302L146.342 343.616L148.82 329.368L150.682 323.044C151.751 319.41 153.207 315.901 155.023 312.577L156.924 309.1C158.125 306.903 159.639 304.891 161.417 303.128L164.291 300.279C165.844 298.741 167.796 297.667 169.926 297.18C172.01 296.704 174.184 296.806 176.213 297.476L176.338 297.518C178.128 298.109 179.756 299.107 181.095 300.434L182.763 302.087C184.252 303.563 185.525 305.243 186.543 307.077L188.463 310.538C189.793 312.934 190.923 315.436 191.843 318.017L193.458 322.554C195.422 328.069 196.898 333.745 197.869 339.518L199.384 348.529L216.735 341.651L220.785 340.48C226.008 338.97 231.345 337.889 236.744 337.247L241.025 336.738H246.005C248.938 336.738 251.844 337.293 254.571 338.374L255.999 338.94C257.246 339.434 258.41 340.115 259.452 340.96L260.275 341.628C262.246 343.225 263.565 345.488 263.986 347.989C264.209 349.319 264.173 350.679 263.878 351.995L263.333 354.424C262.345 357.363 261.036 360.184 259.43 362.837L258.334 364.647C255.728 368.951 252.603 372.92 249.028 376.462L242.017 383.411L225.162 396.676L228.137 404.045L232.102 416.327L235.077 426.644L237.06 438.927L237.436 455.347C237.515 458.793 237.096 462.233 236.193 465.56L235.011 469.911C234.401 472.154 233.302 474.234 231.793 476.002L230.655 477.335C229.337 478.878 227.584 479.988 225.625 480.517C224.02 480.951 222.332 480.98 220.712 480.603L218.746 480.144C216.117 479.531 213.658 478.337 211.55 476.65L206.496 472.605C203.42 470.142 200.668 467.299 198.306 464.145L194.945 459.655C191.961 455.669 189.31 451.444 187.02 447.023L181.043 435.488L177.077 443.84L167.776 460.063C165.72 463.649 163.298 467.013 160.549 470.1C158.352 472.568 155.954 474.85 153.38 476.923L149.316 480.195L146.67 481.864C144.817 483.033 142.75 483.818 140.589 484.175L139.856 484.296C138.57 484.509 137.259 484.509 135.973 484.296C133.375 483.867 130.992 482.589 129.197 480.662L128.249 479.644C126.776 478.063 125.639 476.2 124.907 474.166L124.421 472.818C123.834 471.191 123.433 469.503 123.226 467.786L122.722 463.628C122.276 459.942 122.173 456.223 122.414 452.518L123.043 442.857L126.017 426.644L129.487 415.345L120.564 413.871L108.788 411.277C104.753 410.389 100.823 409.074 97.0657 407.355L93.4013 405.679C91.0308 404.595 88.8184 403.194 86.8247 401.514L82.7369 398.071C80.8995 396.523 79.5799 394.449 78.9557 392.129C78.2911 389.66 78.4495 387.041 79.4067 384.669L79.6618 384.037C80.4795 382.011 81.7668 380.208 83.4176 378.776L85.9024 376.621C87.8495 374.933 90.0247 373.527 92.3639 372.445L97.2512 370.185C101.544 368.199 106.039 366.685 110.658 365.668L121.555 363.268Z" fill="#FFA9D4"/>
<ellipse cx="173.111" cy="388.323" rx="20.8205" ry="20.6343" fill="#F3F340"/>
</g>
<path d="M450.296 108.518V113.405C450.296 117.118 451.019 120.796 452.423 124.233L454.135 128.422L451.314 125.068C449.064 122.392 446.254 120.243 443.082 118.772L440.786 117.708C439.15 116.949 437.367 116.556 435.563 116.556C432.681 116.556 429.889 117.558 427.665 119.391L423.112 123.145C422.048 124.023 421.092 125.026 420.267 126.131C417.963 129.217 414.692 131.442 410.975 132.45L408.871 133.021C408.023 133.251 407.196 133.557 406.402 133.934C403.153 135.48 400.58 138.168 399.174 141.48C398.4 143.302 398 145.265 398 147.244V147.96C398 151.349 398.943 154.672 400.724 157.555L402.379 160.236C403.907 162.711 404.717 165.563 404.717 168.472V174.073C404.717 175.927 405.061 177.764 405.732 179.492C406.94 182.604 409.153 185.223 412.019 186.934L412.656 187.314C415.31 188.897 418.343 189.733 421.434 189.733H434.943C430.511 191.365 426.45 193.87 423.003 197.099L422.949 197.15L420.097 200.541C417.91 203.141 416.712 206.429 416.712 209.826C416.712 212.216 417.305 214.568 418.439 216.671L420.729 220.919C421.249 221.883 421.843 222.804 422.506 223.674L423.789 225.357C425.734 227.907 426.787 231.026 426.787 234.233V239.292C426.787 241.813 427.42 244.293 428.627 246.505L428.835 246.886C430.306 249.581 432.635 251.708 435.452 252.93C438.526 254.264 441.98 254.433 445.17 253.406L447.093 252.787C447.627 252.615 448.139 252.378 448.617 252.083C449.715 251.404 450.98 251.044 452.271 251.044H454.135H458.678C460.094 251.044 461.476 251.474 462.644 252.275C465.033 253.917 468.186 253.917 470.575 252.275L474.351 249.681C474.946 249.272 475.508 248.816 476.032 248.319L478.313 246.149C480.411 244.152 482.162 241.82 483.493 239.248C484.705 236.907 485.554 234.396 486.012 231.801L487.24 224.839L488.679 235.717L489.388 238.491C490.489 242.805 492.862 246.687 496.199 249.634L496.929 250.28C497.505 250.788 498.128 251.241 498.791 251.631C502.352 253.728 506.74 253.852 510.415 251.959L512.189 251.044L514.268 250.187C516.063 249.447 517.985 249.067 519.927 249.067H522.376C524.167 249.067 525.904 249.677 527.302 250.797C528.699 251.917 530.437 252.528 532.228 252.528H532.583C534 252.528 535.395 252.189 536.654 251.541L538.532 250.573C540.46 249.58 542.16 248.196 543.523 246.509C545.31 244.301 546.459 241.646 546.85 238.833L547.693 232.75V228.649C547.693 225.9 548.82 223.272 550.811 221.378C552.803 219.483 553.93 216.855 553.93 214.107V210.151C553.93 207.767 553.48 205.385 552.618 203.163C551.592 200.52 549.992 198.109 547.949 196.144L543.854 192.206H549.216C551.384 192.206 553.537 191.846 555.588 191.142L556.459 190.842C558.586 190.112 560.527 188.926 562.147 187.367C565.174 184.456 566.884 180.438 566.884 176.239V173.417V166.504C566.884 164.884 567.352 163.299 568.232 161.938C568.611 161.352 569.062 160.815 569.574 160.341L571.443 158.607C572.867 157.287 574.005 155.689 574.789 153.913C575.588 152.102 576 150.145 576 148.165V148.035C576 145.548 575.375 143.1 574.184 140.917L574.099 140.761C572.528 137.883 570.088 135.575 567.127 134.167L566.616 133.924C565.836 133.553 565.03 133.241 564.204 132.99L562.29 132.41C559.01 131.416 556.036 129.604 553.649 127.144C552.878 126.349 552.174 125.493 551.543 124.583L549.453 121.567C548.294 119.895 546.78 118.499 545.019 117.478C541.818 115.622 538.007 115.126 534.437 116.1L523.704 119.028V107.76C523.704 105.112 522.922 102.524 521.458 100.318L520.199 98.4218C518.492 95.8509 515.611 94.3056 512.525 94.3056C509.872 94.3056 507.347 93.1612 505.599 91.1657L497.075 81.4408C495.658 79.824 493.863 78.5829 491.85 77.8285L491.786 77.8045C490.366 77.2725 488.862 77 487.346 77H487.218C485.649 77 484.094 77.3078 482.643 77.9061C480.933 78.611 479.409 79.7015 478.19 81.0925L469.485 91.0239C467.657 93.1096 465.019 94.3056 462.246 94.3056C459.25 94.3056 456.425 95.7 454.603 98.0781L453.227 99.8751C451.326 102.356 450.296 105.393 450.296 108.518Z" fill="#ADB4F4" stroke="#C4CDF9"/>
<ellipse cx="487.241" cy="129.905" rx="7.67655" ry="7.91111" fill="#93A2ED"/>
<path d="M486.178 150.706L484.6 136.075C484.473 134.892 485.399 133.86 486.589 133.86H487.892C489.081 133.86 490.007 134.892 489.88 136.075L488.302 150.706C488.244 151.249 487.786 151.66 487.24 151.66C486.694 151.66 486.236 151.249 486.178 150.706Z" fill="#93A2ED" stroke="#93A2ED"/>
<ellipse rx="7.888" ry="7.70029" transform="matrix(0.307516 0.951543 -0.945839 0.324637 523.133 154.744)" fill="#93A2ED"/>
<path d="M503.694 160.256L516.554 154.143C517.635 153.629 518.904 154.175 519.271 155.311L519.712 156.677C520.08 157.813 519.382 159.033 518.218 159.29L504.369 162.345C503.821 162.465 503.277 162.153 503.104 161.618C502.932 161.084 503.185 160.498 503.694 160.256Z" fill="#93A2ED" stroke="#93A2ED"/>
<ellipse rx="7.888" ry="7.70029" transform="matrix(-0.307516 0.951543 0.945839 0.324637 450.895 154.744)" fill="#93A2ED"/>
<path d="M470.334 160.256L457.473 154.143C456.392 153.629 455.124 154.175 454.756 155.311L454.315 156.677C453.948 157.813 454.646 159.033 455.81 159.29L469.659 162.345C470.206 162.465 470.75 162.153 470.923 161.618C471.096 161.084 470.842 160.498 470.334 160.256Z" fill="#93A2ED" stroke="#93A2ED"/>
<ellipse rx="7.72657" ry="7.86227" transform="matrix(0.882669 0.469995 0.448188 -0.893939 465.92 202.31)" fill="#93A2ED"/>
<path d="M474.236 183.337L466.332 195.565C465.688 196.563 466.043 197.922 467.094 198.482L468.271 199.109C469.322 199.668 470.604 199.18 471.02 198.061L476.126 184.343C476.318 183.827 476.096 183.24 475.611 182.982C475.126 182.723 474.533 182.876 474.236 183.337Z" fill="#93A2ED" stroke="#93A2ED"/>
<ellipse rx="7.72657" ry="7.86227" transform="matrix(-0.882669 0.469995 -0.448188 -0.893939 509.51 202.31)" fill="#93A2ED"/>
<path d="M501.194 183.337L509.097 195.565C509.742 196.563 509.387 197.922 508.336 198.482L507.158 199.109C506.107 199.668 504.826 199.18 504.41 198.061L499.304 184.343C499.112 183.827 499.334 183.24 499.819 182.982C500.304 182.723 500.897 182.876 501.194 183.337Z" fill="#93A2ED" stroke="#93A2ED"/>
<ellipse cx="487.242" cy="168.472" rx="19.1914" ry="19.7778" fill="#93A2ED"/>
<circle cx="486.999" cy="168.67" r="15.13" fill="#FEF6FF"/>
<path d="M502.624 232.816L525.427 230.851L527.41 213.164L529.889 198.917L531.75 192.592C532.82 188.958 534.275 185.449 536.092 182.126L537.992 178.649C539.193 176.451 540.707 174.439 542.486 172.676L545.36 169.828C546.912 168.289 548.864 167.216 550.995 166.728C553.078 166.252 555.252 166.354 557.281 167.025L557.407 167.066C559.197 167.657 560.825 168.656 562.164 169.983L563.831 171.635C565.321 173.111 566.593 174.791 567.611 176.625L569.532 180.086C570.861 182.482 571.992 184.984 572.911 187.565L574.527 192.102C576.491 197.617 577.967 203.294 578.938 209.067L580.453 218.077L597.803 211.199L601.853 210.028C607.076 208.519 612.414 207.437 617.812 206.795L622.094 206.286H627.073C630.006 206.286 632.913 206.841 635.639 207.922L637.067 208.488C638.314 208.982 639.479 209.664 640.521 210.509L641.344 211.176C643.314 212.774 644.634 215.036 645.054 217.538C645.278 218.867 645.241 220.228 644.946 221.543L644.401 223.973C643.413 226.911 642.104 229.733 640.498 232.385L639.402 234.195C636.796 238.5 633.671 242.468 630.097 246.01L623.085 252.959L606.231 266.224L609.205 273.593L613.171 285.876L616.145 296.193L618.128 308.475L618.504 324.895C618.584 328.342 618.165 331.782 617.261 335.109L616.079 339.459C615.47 341.702 614.371 343.783 612.861 345.55L611.723 346.883C610.406 348.427 608.652 349.536 606.693 350.065C605.088 350.499 603.4 350.529 601.78 350.151L599.814 349.693C597.185 349.079 594.726 347.885 592.618 346.198L587.565 342.153C584.488 339.69 581.736 336.848 579.375 333.693L576.013 329.203C573.029 325.217 570.379 320.992 568.088 316.571L562.111 305.036L558.145 313.388L548.844 329.611C546.788 333.197 544.367 336.561 541.618 339.648C539.42 342.117 537.023 344.399 534.449 346.471L530.384 349.744L527.738 351.413C525.886 352.581 523.818 353.367 521.658 353.724L520.924 353.845C519.639 354.057 518.327 354.057 517.041 353.845C514.443 353.416 512.061 352.138 510.266 350.211L509.318 349.193C507.845 347.611 506.708 345.748 505.975 343.715L505.489 342.366C504.903 340.739 504.502 339.051 504.294 337.335L503.79 333.177C503.344 329.491 503.241 325.771 503.482 322.066L504.111 312.406L507.085 296.193L510.555 284.893L501.632 283.419L489.856 280.826C485.821 279.937 481.892 278.622 478.134 276.903L474.47 275.227C472.099 274.143 469.887 272.742 467.893 271.062L463.805 267.619C461.968 266.071 460.648 263.998 460.024 261.678C459.359 259.208 459.518 256.589 460.475 254.217L460.73 253.585C461.548 251.559 462.835 249.756 464.486 248.325L466.971 246.17C468.918 244.481 471.093 243.075 473.432 241.993L478.32 239.733C482.612 237.748 487.108 236.233 491.727 235.216L502.624 232.816Z" fill="#FF6D90"/>
<ellipse cx="556.162" cy="257.381" rx="20.8205" ry="20.6343" fill="#F3F340"/>
<path d="M214.752 698.821L348.102 704.225L342.153 723.877L214.752 730.264L229.128 713.56L214.752 698.821Z" fill="#FCA4D0"/>
<path d="M208.803 705.699L342.153 711.103L336.204 730.755L208.803 737.142L223.179 720.438L208.803 705.699Z" fill="#FFC7E3"/>
<path d="M273.744 761.707L342.65 722.403L370.906 725.842L290.599 788.728L289.111 769.567L273.744 761.707Z" fill="#FCA4D0"/>
<path d="M274.238 771.043L343.144 731.739L371.4 735.179L291.093 798.064L289.606 778.904L274.238 771.043Z" fill="#FFC7E3"/>
<path d="M405.022 732.161C405.022 732.161 392.619 735.661 382.259 742.497C373.732 748.111 366.016 756.638 366.016 756.638L368.224 777.498L374.331 782.114L399.948 759.058C399.948 759.058 403.589 749.544 404.892 743.026C405.574 739.666 405.926 736.378 405.926 736.378L405.022 732.161ZM415.545 734.769C415.545 734.769 418.141 744.576 419.093 748.464C420.173 752.856 422.252 759.997 422.252 759.997L447.727 778.109L457.359 759.257C457.359 759.257 451.944 752.539 449.031 749.027C446.118 745.516 429.569 734.087 429.569 734.087L415.545 734.769Z" fill="#F395C4"/>
<path d="M349.924 788.586C349.924 788.586 350.805 780.517 357.429 768.983C364.053 757.449 367.307 755.441 367.307 755.441C367.307 755.441 371.136 754.548 374.53 754.137C378.195 753.69 381.248 754.031 381.248 754.031C381.248 754.031 376.633 759.645 374.025 765.06C371.418 770.474 369.809 775.595 371.723 776.594C373.626 777.592 375.752 770.721 379.851 764.461C384.161 757.86 387.45 754.618 387.45 754.618C387.45 754.618 390.739 754.724 394.168 755.746C397.962 756.873 400.064 758.8 400.064 758.8C400.064 758.8 393.299 776.993 389.588 787.529C385.876 798.064 380.52 812.041 379.217 812.546C377.913 813.051 375.646 808.999 374.237 805.792C372.827 802.586 368.023 785.532 367.718 785.837C367.413 786.143 349.924 788.586 349.924 788.586ZM422.239 759.915C422.239 759.915 425.188 757.931 427.595 757.12C430.003 756.321 434.267 755.64 434.267 755.64C434.267 755.64 436.827 760.644 438.824 764.062C440.832 767.468 444.097 774.491 446.2 773.481C448.302 772.483 445.601 765.389 444.039 762.253C442.618 759.399 440.128 755.534 440.128 755.534C440.128 755.534 443.24 755.135 448.948 756.239C454.668 757.343 457.37 759.246 457.37 759.246C457.37 759.246 462.655 767.092 465.497 771.884C469.279 778.273 474.024 789.126 474.024 789.126L453.059 790.841L442.524 813.908C442.524 813.908 441.067 814.002 440.257 813.509C439.458 813.004 435.664 802.586 433.609 796.478C430.379 786.836 422.239 759.915 422.239 759.915Z" fill="#FFC7E3"/>
<path d="M451.85 788.844C451.04 789.595 443.206 809.057 442.971 809.633C441.761 812.616 440.105 813.297 440.105 813.297C440.105 813.297 441.526 815.341 443.934 814.636C445.79 814.096 454.622 793.178 454.622 793.178C454.622 793.178 470.584 793.33 472.91 792.32C475.517 791.193 473.99 789.067 473.99 789.067C473.99 789.067 452.931 787.834 451.85 788.844ZM349.96 788.139C349.96 788.139 354.682 787.282 359.027 786.131C363.373 784.98 368.94 783.347 368.94 783.347C368.94 783.347 373.333 795.351 374.649 799.379C375.964 803.408 379.394 812.417 379.394 812.417C379.394 812.417 377.902 814.026 375.753 812.698C373.744 811.453 369.904 800.836 368.893 798.017C367.601 794.446 365.922 789.149 365.922 789.149C365.922 789.149 361.365 790.664 357.571 791.357C353.777 792.05 351.205 792.555 350.195 791.545C349.185 790.547 349.96 788.139 349.96 788.139ZM388.731 706.909L366.944 701.318L351.546 713.838L345.156 744.376L348.645 750.249C348.645 750.249 352.427 753.138 363.068 750.766C373.709 748.381 397.74 739.126 397.74 739.126C397.74 739.126 400.805 740.395 403.554 740.77C406.302 741.146 410.989 740.16 410.989 740.16C410.989 740.16 416.885 741.123 420.396 740.876C423.897 740.629 425.4 740.254 425.4 740.254C425.4 740.254 436.922 746.385 448.432 749.638C459.943 752.892 468.834 753.631 470.842 753.397C473.967 753.021 475.47 747.759 475.47 747.759L474.213 736.237L457.441 700.179L422.511 710.197L420.385 712.582L411.235 710.092L398.82 712.535L397.258 710.702L388.731 706.909Z" fill="#FCA4D0"/>
<path d="M398.396 712.077C398.396 712.077 399.782 707.778 410.224 707.778C419.961 707.778 421.276 711.63 421.276 711.63C421.276 711.63 422.545 720.087 421.394 727.416C420.372 733.97 416.742 740.817 416.742 740.817C416.742 740.817 414.335 741.416 410.611 741.522C407.1 741.616 403.365 740.735 403.365 740.735C403.365 740.735 400.052 734.898 398.655 727.569C397.316 720.474 398.396 712.077 398.396 712.077Z" fill="#FFC7E3"/>
<path d="M404.634 725.819C406.63 726.218 407.77 720.851 409.026 719.382C411 717.092 415.674 717.538 415.592 714.473C415.533 712.053 406.63 710.938 403.424 715.424C401.192 718.56 401.451 725.185 404.634 725.819Z" fill="#FFE2F0"/>
<path d="M422.498 710.197C422.498 710.197 423.826 711.818 425 714.731C425.869 716.868 426.809 719.993 426.809 719.993C426.809 719.993 431.131 716.222 434.831 714.179C438.519 712.135 456.149 705.875 456.607 714.414C456.971 721.355 443.98 721.214 437.885 723.692C433.598 725.431 427.76 728.719 427.76 728.719V735.79C427.76 735.79 430.579 738.797 437.18 739.349C443.781 739.901 460.706 739.701 464.041 739.842C470.983 740.136 473.414 743.248 473.414 746.948C473.414 750.636 472.11 752.151 472.545 752.633C473.109 753.267 476.01 750.953 477.584 744.975C479.158 738.996 480.367 727.827 479.898 718.254C479.345 706.944 477.114 691.804 472.063 688.985C467.013 686.166 452.284 689.925 443.64 693.624C429.099 699.849 422.498 710.197 422.498 710.197ZM393.441 719.558C393.441 719.558 393.981 716.774 395.003 714.566C395.801 712.84 397.27 710.714 397.27 710.714C397.27 710.714 394.498 703.49 384.291 697.63C374.084 691.769 352.731 687.188 345.931 689.772C342.548 691.052 339.271 699.732 338.273 712.91C337.416 724.35 338.543 738.045 342.149 744.799C344.862 749.884 351.745 753.666 353.835 751.576C354.857 750.554 347.058 747.007 354.493 742.332C358.804 739.631 367.049 739.866 374.202 739.396C381.355 738.926 384.408 739.278 388.167 738.339C391.925 737.399 394.263 735.99 394.263 735.99C394.263 735.99 393.382 733.053 393.206 731.644C392.959 729.718 392.806 728.144 392.806 728.144C392.806 728.144 390.328 726.746 383.821 725.666C377.443 724.597 366.967 724.832 366.814 717.808C366.614 708.893 376.903 711.125 381.707 713.11C386.511 715.095 392.853 718.971 393.441 719.558Z" fill="#FFC7E3"/>
<path d="M380.722 282.355L393.359 301L407.135 280.675C412.317 273.029 416.037 264.488 418.105 255.486L420.312 245.884C421.792 239.443 421.557 232.726 419.631 226.404L418.262 221.907C416.161 215.01 411.358 209.257 404.948 205.958L404.565 205.76C401.04 203.946 397.134 203 393.17 203C389.075 203 385.038 204.013 381.427 205.943C375.262 209.238 370.75 214.971 369.005 221.74L367.499 227.585C366.062 233.16 365.887 238.986 366.985 244.637L368.688 253.397C370.704 263.762 374.797 273.613 380.722 282.355Z" fill="#F2CACA" stroke="#F2CACA"/>
<path d="M403.977 280.922L393.746 300.924L418.238 303.059C427.497 303.866 436.822 302.964 445.745 300.396L455.268 297.656C461.623 295.827 467.386 292.38 471.992 287.652L475.361 284.194C480.364 279.059 483.068 272.121 482.858 264.959L482.845 264.491C482.729 260.549 481.666 256.69 479.744 253.239C477.759 249.675 474.901 246.644 471.461 244.439C465.592 240.679 458.387 239.516 451.646 241.266L445.67 242.817C440.094 244.264 434.911 246.926 430.495 250.611L423.614 256.35C415.476 263.139 408.797 271.496 403.977 280.922Z" fill="#F2CACA" stroke="#F2CACA"/>
<path d="M384.023 280.934L394.254 300.937L369.762 303.072C360.503 303.879 351.178 302.976 342.255 300.408L332.732 297.668C326.377 295.84 320.614 292.392 316.008 287.665L312.639 284.207C307.636 279.071 304.932 272.134 305.142 264.971L305.155 264.503C305.271 260.561 306.334 256.702 308.256 253.251C310.241 249.687 313.099 246.656 316.539 244.451C322.408 240.691 329.613 239.528 336.354 241.278L342.33 242.829C347.906 244.277 353.089 246.938 357.505 250.623L364.386 256.362C372.524 263.151 379.203 271.508 384.023 280.934Z" fill="#F2CACA" stroke="#F2CACA"/>
<path d="M380.722 282.355L393.359 301L407.135 280.675C412.317 273.029 416.037 264.488 418.105 255.486L420.312 245.884C421.792 239.443 421.557 232.726 419.631 226.404L418.262 221.907C416.161 215.01 411.358 209.257 404.948 205.958L404.565 205.76C401.04 203.946 397.134 203 393.17 203C389.075 203 385.038 204.013 381.427 205.943C375.262 209.238 370.75 214.971 369.005 221.74L367.499 227.585C366.062 233.16 365.887 238.986 366.985 244.637L368.688 253.397C370.704 263.762 374.797 273.613 380.722 282.355Z" fill="#F2CACA" stroke="#F2CACA"/>
<path d="M403.977 280.922L393.746 300.924L418.238 303.059C427.497 303.866 436.822 302.964 445.745 300.396L455.268 297.656C461.623 295.827 467.386 292.38 471.992 287.652L475.361 284.194C480.364 279.059 483.068 272.121 482.858 264.959L482.845 264.491C482.729 260.549 481.666 256.69 479.744 253.239C477.759 249.675 474.901 246.644 471.461 244.439C465.592 240.679 458.387 239.516 451.646 241.266L445.67 242.817C440.094 244.264 434.911 246.926 430.495 250.611L423.614 256.35C415.476 263.139 408.797 271.496 403.977 280.922Z" fill="#F2CACA" stroke="#F2CACA"/>
<path d="M384.023 280.934L394.254 300.937L369.762 303.072C360.503 303.879 351.178 302.976 342.255 300.408L332.732 297.668C326.377 295.84 320.614 292.392 316.008 287.665L312.639 284.207C307.636 279.071 304.932 272.134 305.142 264.971L305.155 264.503C305.271 260.561 306.334 256.702 308.256 253.251C310.241 249.687 313.099 246.656 316.539 244.451C322.408 240.691 329.613 239.528 336.354 241.278L342.33 242.829C347.906 244.277 353.089 246.938 357.505 250.623L364.386 256.362C372.524 263.151 379.203 271.508 384.023 280.934Z" fill="#F2CACA" stroke="#F2CACA"/>
<path d="M380.682 324.514L393.359 306L407.171 326.171C412.329 333.703 416.035 342.132 418.099 351.024L420.299 360.5C421.787 366.909 421.551 373.597 419.616 379.885L418.299 384.166C416.175 391.069 411.343 396.815 404.908 400.093L404.576 400.263C401.043 402.062 397.114 403 393.149 403C389.081 403 385.053 402.006 381.457 400.104C375.267 396.83 370.738 391.106 368.974 384.33L367.51 378.709C366.066 373.164 365.89 367.365 366.994 361.742L368.693 353.094C370.705 342.851 374.785 333.127 380.682 324.514Z" fill="#F2CACA" stroke="#F2CACA"/>
<path d="M403.972 325.303L393.746 305.37L418.228 303.243C427.493 302.437 436.823 303.338 445.749 305.898L455.277 308.632C461.626 310.453 467.384 313.887 471.986 318.597L475.375 322.064C480.369 327.176 483.068 334.084 482.859 341.221L482.845 341.697C482.729 345.626 481.666 349.472 479.744 352.913C477.759 356.466 474.899 359.49 471.46 361.687C465.595 365.433 458.394 366.597 451.665 364.855L445.663 363.302C440.091 361.86 434.913 359.209 430.5 355.538L423.617 349.813C415.477 343.043 408.796 334.707 403.972 325.303Z" fill="#F2CACA" stroke="#F2CACA"/>
<path d="M384.028 325.291L394.254 305.358L369.772 303.23C360.507 302.425 351.177 303.325 342.251 305.886L332.723 308.619C326.374 310.44 320.616 313.875 316.014 318.584L312.625 322.052C307.631 327.163 304.932 334.072 305.141 341.209L305.155 341.684C305.271 345.613 306.334 349.46 308.256 352.9C310.241 356.454 313.101 359.477 316.54 361.674C322.405 365.421 329.606 366.584 336.335 364.842L342.337 363.289C347.909 361.847 353.087 359.196 357.5 355.525L364.383 349.801C372.523 343.03 379.204 334.695 384.028 325.291Z" fill="#F2CACA" stroke="#F2CACA"/>
<rect x="368.33" y="293" width="49.2184" height="18" fill="#F2CACA"/>
<ellipse cx="393.443" cy="300" rx="13.058" ry="13" fill="#F3F340"/>
<path d="M564.984 429.625C564.984 429.625 564.305 429.068 563.03 428.169C562.262 427.618 561.48 427.086 560.684 426.574C559.642 425.882 558.584 425.214 557.509 424.573C555.489 423.359 553.097 422.026 550.392 420.656C552.309 418.308 553.955 416.119 555.309 414.189C556.031 413.168 556.728 412.128 557.399 411.072C557.919 410.282 558.419 409.479 558.897 408.663C559.697 407.324 560.092 406.539 560.092 406.539C560.322 406.076 560.532 405.544 560.675 405.026C561.886 400.638 559.31 396.099 554.922 394.888C554.922 394.888 554.074 394.655 552.545 394.35C551.619 394.157 550.688 393.988 549.753 393.844C548.52 393.633 547.282 393.453 546.039 393.303C544.499 393.112 542.786 392.94 540.936 392.8C541.43 391.163 541.885 389.514 542.301 387.856C542.607 386.643 542.884 385.423 543.13 384.196C543.332 383.272 543.509 382.342 543.662 381.409C543.928 379.872 544.014 378.998 544.014 378.998C544.062 378.482 544.067 377.91 544.014 377.376C543.566 372.846 539.531 369.537 535.001 369.985C535.001 369.985 534.126 370.071 532.59 370.337C531.656 370.49 530.727 370.667 529.803 370.869C528.715 371.088 527.485 371.359 526.143 371.698C523.855 372.268 521.222 373.018 518.341 373.962C518.034 370.946 517.651 368.235 517.244 365.913C517.01 364.548 516.759 363.313 516.518 362.231C516.327 361.304 516.112 360.383 515.874 359.468C515.493 357.956 515.217 357.122 515.217 357.122C515.044 356.608 514.824 356.112 514.559 355.639C512.312 351.681 507.282 350.293 503.323 352.54C503.323 352.54 502.559 352.974 501.262 353.84C500.471 354.358 499.693 354.897 498.93 355.456C497.909 356.179 496.906 356.927 495.922 357.699C494.574 358.752 493.252 359.837 491.957 360.952C491.149 359.445 490.305 357.958 489.426 356.491C488.785 355.417 488.118 354.358 487.425 353.316C486.914 352.521 486.382 351.738 485.83 350.97C484.931 349.696 484.374 349.016 484.374 349.016C484.028 348.599 483.644 348.215 483.227 347.869C479.707 344.983 474.514 345.496 471.628 349.016C471.628 349.016 471.07 349.696 470.171 350.97C469.62 351.738 469.088 352.521 468.577 353.316C467.884 354.358 467.217 355.417 466.575 356.491C465.36 358.513 464.026 360.908 462.655 363.615C460.306 361.697 458.118 360.05 456.187 358.694C455.166 357.972 454.127 357.275 453.072 356.603C452.282 356.083 451.479 355.583 450.664 355.105C449.326 354.304 448.542 353.909 448.542 353.909C448.054 353.667 447.545 353.471 447.021 353.323C442.634 352.116 438.099 354.693 436.891 359.079C436.891 359.079 436.658 359.926 436.354 361.455C436.199 362.221 436.013 363.163 435.85 364.246C435.639 365.479 435.459 366.717 435.31 367.959C435.102 369.659 434.934 371.364 434.808 373.072C433.168 372.576 431.517 372.119 429.856 371.702C428.643 371.395 427.423 371.118 426.197 370.871C425.273 370.67 424.344 370.492 423.411 370.338C421.875 370.072 421.001 369.985 421.001 369.985C420.459 369.934 419.913 369.934 419.371 369.985C414.844 370.435 411.538 374.471 411.988 378.998C411.988 378.998 412.075 379.872 412.341 381.408C412.472 382.179 412.637 383.125 412.874 384.194C413.093 385.281 413.365 386.511 413.705 387.853C414.277 390.143 415.028 392.78 415.974 395.665C412.953 395.97 410.239 396.353 407.914 396.76C406.549 396.994 405.315 397.244 404.233 397.484C403.159 397.701 402.228 397.934 401.47 398.128C399.959 398.507 399.124 398.783 399.124 398.783C398.608 398.956 398.11 399.178 397.635 399.444C393.679 401.692 392.294 406.721 394.542 410.677C394.542 410.677 394.976 411.441 395.843 412.737C396.361 413.528 396.901 414.305 397.46 415.067C398.183 416.088 398.931 417.091 399.703 418.074C400.659 419.301 401.751 420.635 402.963 422.045C401.453 422.854 399.963 423.698 398.493 424.578C397.419 425.219 396.36 425.885 395.318 426.577C394.523 427.088 393.74 427.619 392.972 428.171C391.698 429.069 391.018 429.625 391.018 429.625C390.599 429.973 390.213 430.359 389.866 430.778C386.982 434.298 387.498 439.488 391.018 442.372C391.018 442.372 391.698 442.928 392.972 443.826C393.609 444.279 394.395 444.831 395.318 445.42C396.36 446.112 397.419 446.779 398.493 447.419C400.517 448.634 402.912 449.968 405.622 451.339C403.702 453.69 402.053 455.881 400.696 457.812C399.974 458.834 399.277 459.873 398.605 460.928C398.085 461.718 397.585 462.521 397.107 463.337C396.306 464.674 395.911 465.459 395.911 465.459C395.669 465.946 395.473 466.456 395.325 466.98C394.118 471.367 396.695 475.902 401.082 477.11C401.082 477.11 401.929 477.343 403.458 477.647C404.223 477.802 405.166 477.988 406.249 478.151C407.342 478.338 408.587 478.526 409.962 478.691C411.661 478.899 413.366 479.067 415.074 479.193C414.578 480.832 414.122 482.483 413.705 484.144C413.398 485.357 413.12 486.577 412.873 487.803C412.672 488.727 412.494 489.656 412.341 490.589C412.075 492.125 411.988 492.999 411.988 492.999C411.937 493.541 411.937 494.087 411.988 494.629C412.438 499.157 416.473 502.463 421.001 502.013C421.001 502.013 421.875 501.926 423.411 501.66C424.181 501.529 425.128 501.364 426.197 501.127C427.284 500.907 428.514 500.636 429.856 500.296C432.146 499.724 434.783 498.973 437.668 498.027C437.973 501.047 438.356 503.762 438.763 506.088C438.974 507.321 439.216 508.548 439.487 509.769C439.704 510.843 439.937 511.774 440.13 512.531C440.51 514.043 440.785 514.877 440.785 514.877C440.959 515.393 441.18 515.892 441.446 516.367C443.694 520.323 448.724 521.708 452.68 519.46C452.68 519.46 453.444 519.026 454.74 518.159C455.53 517.64 456.307 517.101 457.07 516.542C458.091 515.819 459.093 515.071 460.077 514.298C461.426 513.243 462.75 512.156 464.048 511.038C464.856 512.547 465.701 514.038 466.58 515.507C467.221 516.582 467.888 517.64 468.58 518.682C469.09 519.478 469.622 520.26 470.173 521.028C471.071 522.303 471.628 522.982 471.628 522.982C471.975 523.401 472.361 523.787 472.78 524.134C476.3 527.018 481.491 526.502 484.374 522.982C484.374 522.982 484.931 522.302 485.829 521.028C486.38 520.26 486.911 519.478 487.422 518.682C488.114 517.64 488.781 516.582 489.421 515.507C490.635 513.485 491.967 511.092 493.337 508.386C495.688 510.304 497.879 511.951 499.81 513.307C500.832 514.029 501.871 514.726 502.927 515.397C503.717 515.917 504.521 516.417 505.337 516.895C506.675 517.695 507.46 518.09 507.46 518.09C507.924 518.32 508.456 518.53 508.973 518.673C513.362 519.884 517.9 517.308 519.111 512.919C519.111 512.919 519.344 512.072 519.649 510.543C519.805 509.777 519.991 508.835 520.155 507.751C520.341 506.657 520.531 505.412 520.696 504.037C520.887 502.497 521.059 500.784 521.199 498.933C522.836 499.428 524.484 499.883 526.142 500.299C527.484 500.638 528.715 500.909 529.802 501.128C530.871 501.365 531.818 501.53 532.589 501.66C534.125 501.925 535 502.012 535 502.012C535.515 502.059 536.088 502.064 536.622 502.012C541.152 501.564 544.461 497.528 544.013 492.998C544.013 492.998 543.927 492.124 543.661 490.587C543.508 489.654 543.33 488.724 543.129 487.8C542.883 486.573 542.606 485.353 542.299 484.14C541.729 481.852 540.98 479.219 540.036 476.338C543.052 476.032 545.763 475.649 548.086 475.242C549.451 475.008 550.685 474.757 551.768 474.515C552.842 474.298 553.774 474.064 554.531 473.871C556.043 473.49 556.877 473.214 556.877 473.214C557.391 473.041 557.887 472.821 558.36 472.557C562.318 470.31 563.706 465.279 561.459 461.32C561.459 461.32 561.025 460.556 560.159 459.259C559.641 458.468 559.102 457.69 558.543 456.927C557.82 455.906 557.072 454.903 556.3 453.919C555.247 452.571 554.162 451.249 553.047 449.954C554.553 449.146 556.041 448.302 557.507 447.423C558.582 446.782 559.64 446.115 560.682 445.422C561.478 444.911 562.26 444.379 563.028 443.827C564.303 442.928 564.982 442.371 564.982 442.371C565.399 442.025 565.783 441.641 566.129 441.224C569.018 437.705 568.504 432.511 564.984 429.625Z" fill="#FFF387"/>
<path d="M478 482.16C503.494 482.16 524.16 461.493 524.16 435.999C524.16 410.506 503.494 389.839 478 389.839C452.506 389.839 431.84 410.506 431.84 435.999C431.84 461.493 452.506 482.16 478 482.16Z" fill="#8D6A51"/>
<path d="M638.611 324.857L615.501 335.741C615.321 335.825 615.175 335.969 615.089 336.148L611.552 343.466C609.899 346.887 609.36 350.74 610.013 354.484C610.567 357.659 611.956 360.629 614.037 363.089L616.66 366.19C620.64 370.894 625.853 374.396 631.713 376.301L640.622 379.196C645.663 380.835 651.137 380.503 655.943 378.268C663.747 374.638 668.54 366.607 668.029 358.015L667.897 355.788C667.893 355.728 667.879 355.67 667.854 355.615L656.97 331.768L655.554 329.045C654.526 327.068 652.958 325.422 651.033 324.3L650.8 324.163C649.735 323.542 648.568 323.118 647.354 322.909C645.393 322.572 643.376 322.811 641.548 323.596L638.611 324.857Z" fill="#E98BAD" stroke="#E98BAD"/>
<path d="M565.82 357.573L577.778 325.808C578.289 324.449 579.19 323.27 580.367 322.419C581.352 321.707 582.497 321.248 583.701 321.084L584.748 320.941C586.661 320.68 588.608 320.899 590.415 321.579L594.334 323.055C595.903 323.645 597.415 324.374 598.854 325.233L603.161 327.806C607.815 330.585 612.189 333.806 616.224 337.424L620.947 341.66L623.09 343.903C626.583 347.557 629.699 351.554 632.391 355.833C635.131 360.188 637.418 364.813 639.215 369.634L639.498 370.392C641.039 374.524 642.248 378.771 643.115 383.095L645.038 392.677L645.186 394.228C645.827 400.938 645.688 407.699 644.772 414.378L643.802 419.037C642.75 424.091 641.309 429.056 639.49 433.888L637.759 438.485C636.743 441.185 635.509 443.798 634.068 446.297L632.555 448.923C631.051 451.532 629.186 453.914 627.014 455.999L626.108 456.869C622.85 459.996 618.858 462.253 614.5 463.434C609.831 464.7 604.908 464.684 600.247 463.39L598.909 463.019C595.65 462.114 592.556 460.698 589.74 458.825L581.902 453.608C575.544 449.376 569.962 443.93 565.546 437.698C560.562 430.663 557.055 422.565 555.378 414.108C553.925 406.779 553.825 399.245 555.083 391.879L555.623 388.717C556.466 383.781 557.778 378.937 559.542 374.251L565.82 357.573Z" fill="#FDBDD3" stroke="#FDBDD3"/>
<path d="M691.322 404.815L703.28 373.05C703.791 371.691 703.892 370.211 703.568 368.795C703.297 367.61 702.738 366.51 701.942 365.593L701.248 364.795C699.983 363.337 698.374 362.218 696.567 361.538L692.648 360.063C691.08 359.472 689.462 359.023 687.814 358.72L682.879 357.814C677.548 356.834 672.136 356.371 666.716 356.431L660.373 356.501L657.283 356.774C652.247 357.218 647.269 358.168 642.424 359.61C637.492 361.077 632.723 363.046 628.192 365.485L627.48 365.868C623.597 367.959 619.887 370.354 616.384 373.033L608.62 378.969L607.487 380.037C602.58 384.658 598.225 389.833 594.51 395.458L592.167 399.6C589.625 404.094 587.435 408.777 585.616 413.608L583.885 418.206C582.869 420.906 582.074 423.684 581.509 426.513L580.915 429.485C580.325 432.437 580.157 435.458 580.415 438.458L580.523 439.709C580.91 444.208 582.422 448.538 584.92 452.3C587.595 456.33 591.307 459.565 595.664 461.665L596.915 462.268C599.961 463.737 603.221 464.713 606.573 465.161L615.905 466.408C623.476 467.419 631.264 467.006 638.693 465.232C647.079 463.23 655.055 459.455 661.893 454.203C667.819 449.651 672.862 444.054 676.773 437.687L678.452 434.953C681.073 430.686 683.28 426.18 685.044 421.494L691.322 404.815Z" fill="#F5AFC7" stroke="#F5AFC7"/>
<path d="M296.731 375.417L298.862 378.588C300.822 381.503 302.363 384.678 303.442 388.02C304.646 391.752 305.259 395.648 305.259 399.569V405.957C305.259 406.853 305.113 407.743 304.828 408.593C303.782 411.703 300.997 413.902 297.728 414.197L293.64 414.566H287.438C283.283 414.566 279.159 413.852 275.246 412.454C272.032 411.307 268.996 409.711 266.228 407.714L260.933 403.895L254.547 398.049C251.351 395.123 248.419 391.922 245.783 388.483L243.038 384.901C242.06 383.624 241.203 382.259 240.479 380.822L238.109 376.123C236.735 373.396 236.429 370.254 237.253 367.314L237.613 366.027C237.948 364.831 238.588 363.742 239.47 362.868C240.813 361.535 242.629 360.788 244.521 360.788H249.744V356.706C249.744 353.716 251.438 350.984 254.117 349.656C255.203 349.117 256.4 348.837 257.613 348.837H259.947C263.128 348.837 266.252 349.688 268.993 351.303L275.47 355.117C277.538 356.335 279.507 357.714 281.357 359.243L284.243 361.629C289.048 365.6 293.254 370.244 296.731 375.417Z" fill="#FDEBEB" stroke="#F9F4F4"/>
<path d="M297.161 460.544L299.292 457.373C301.252 454.458 302.793 451.283 303.872 447.94C305.076 444.209 305.689 440.312 305.689 436.391V430.004C305.689 429.108 305.543 428.217 305.258 427.368C304.212 424.257 301.427 422.058 298.158 421.763L294.069 421.395H287.868C283.713 421.395 279.589 422.109 275.676 423.506C272.462 424.654 269.425 426.249 266.657 428.246L261.363 432.065L254.976 437.912C251.781 440.837 248.848 444.038 246.213 447.477L243.468 451.059C242.489 452.336 241.632 453.702 240.908 455.138L238.539 459.838C237.164 462.564 236.859 465.706 237.682 468.646L238.043 469.934C238.378 471.13 239.018 472.218 239.899 473.093C241.243 474.425 243.059 475.173 244.951 475.173H250.174V479.255C250.174 482.245 251.868 484.976 254.547 486.304C255.633 486.843 256.829 487.124 258.042 487.124H260.376C263.558 487.124 266.682 486.272 269.423 484.658L275.9 480.844C277.968 479.626 279.936 478.246 281.786 476.717L284.673 474.331C289.477 470.361 293.683 465.717 297.161 460.544Z" fill="#FDEBEB" stroke="#F9F4F4"/>
<path d="M318.951 460.544L316.819 457.373C314.86 454.458 313.318 451.283 312.24 447.94C311.036 444.209 310.423 440.312 310.423 436.391V430.004C310.423 429.108 310.568 428.217 310.854 427.368C311.899 424.257 314.685 422.058 317.953 421.763L322.042 421.395H328.244C332.398 421.395 336.522 422.109 340.435 423.506C343.65 424.654 346.686 426.249 349.454 428.246L354.749 432.065L361.135 437.912C364.331 440.837 367.263 444.038 369.898 447.477L372.643 451.059C373.622 452.336 374.479 453.702 375.203 455.138L377.572 459.838C378.947 462.564 379.252 465.706 378.429 468.646L378.068 469.934C377.733 471.13 377.094 472.218 376.212 473.093C374.868 474.425 373.053 475.173 371.16 475.173H365.938V479.255C365.938 482.245 364.243 484.976 361.565 486.304C360.478 486.843 359.282 487.124 358.069 487.124H355.735C352.553 487.124 349.43 486.272 346.688 484.658L340.211 480.844C338.143 479.626 336.175 478.246 334.325 476.717L331.439 474.331C326.634 470.361 322.428 465.717 318.951 460.544Z" fill="#FDEBEB" stroke="#F9F4F4"/>
<path d="M318.951 374.563L316.819 377.734C314.86 380.649 313.318 383.824 312.24 387.167C311.036 390.898 310.423 394.795 310.423 398.716V405.103C310.423 405.999 310.568 406.89 310.854 407.739C311.899 410.85 314.685 413.049 317.953 413.343L322.042 413.712H328.244C332.398 413.712 336.522 412.998 340.435 411.601C343.65 410.453 346.686 408.857 349.454 406.861L354.749 403.042L361.135 397.195C364.331 394.27 367.263 391.069 369.898 387.63L372.643 384.048C373.622 382.771 374.479 381.405 375.203 379.969L377.572 375.269C378.947 372.543 379.252 369.401 378.429 366.461L378.068 365.173C377.733 363.977 377.094 362.889 376.212 362.014C374.868 360.682 373.053 359.934 371.16 359.934H365.938V355.852C365.938 352.862 364.243 350.131 361.565 348.803C360.478 348.264 359.282 347.983 358.069 347.983H355.735C352.553 347.983 349.43 348.835 346.688 350.449L340.211 354.263C338.143 355.481 336.175 356.861 334.325 358.39L331.439 360.775C326.634 364.746 322.428 369.39 318.951 374.563Z" fill="#FDEBEB" stroke="#F9F4F4"/>
<path d="M331.686 379.475L330.951 383.31C330.288 386.769 329.136 390.118 327.529 393.257C325.729 396.776 323.378 399.99 320.564 402.78L316.02 407.287C315.371 407.931 314.619 408.465 313.795 408.867C310.82 410.32 307.26 409.896 304.716 407.785L301.433 405.062L296.926 400.592C293.926 397.617 291.458 394.158 289.627 390.363C288.116 387.232 287.056 383.906 286.476 380.483L285.378 373.997L284.934 365.233C284.714 360.88 284.88 356.517 285.43 352.193L286.009 347.647C286.212 346.05 286.567 344.476 287.067 342.945L288.716 337.9C289.671 334.978 291.705 332.522 294.409 331.025L295.557 330.389C296.671 329.772 297.928 329.455 299.203 329.468C301.12 329.487 302.952 330.251 304.308 331.596L308.116 335.372L310.985 332.526C313.154 330.375 316.367 329.637 319.268 330.622C320.427 331.015 321.48 331.667 322.346 332.526L324.055 334.22C326.36 336.507 328.014 339.359 328.848 342.485L330.801 349.81C331.431 352.172 331.872 354.579 332.119 357.009L332.507 360.813C333.142 367.04 332.865 373.326 331.686 379.475Z" fill="#F8DDDD" stroke="#FBEFEF"/>
<path d="M346.067 394.956L342.336 395.697C338.86 396.386 335.499 397.552 332.348 399.162C328.841 400.954 325.635 403.275 322.845 406.042L318.274 410.575C317.641 411.204 317.113 411.929 316.713 412.724C315.232 415.662 315.645 419.19 317.765 421.714L320.361 424.803L324.735 429.142C327.68 432.062 331.112 434.454 334.88 436.213C337.965 437.653 341.242 438.652 344.61 439.179L351.095 440.195L359.76 440.539C364.119 440.712 368.484 440.505 372.806 439.92L377.279 439.315C378.889 439.097 380.476 438.731 382.018 438.221L387.038 436.562C389.953 435.598 392.405 433.595 393.917 430.942L394.593 429.756C395.203 428.685 395.524 427.477 395.524 426.247C395.524 424.356 394.766 422.543 393.418 421.206L389.742 417.56L392.686 414.64C394.798 412.545 395.535 409.447 394.591 406.636C394.204 405.484 393.551 404.437 392.686 403.579L391.047 401.954C388.799 399.724 385.985 398.135 382.903 397.356L375.582 395.505C373.259 394.918 370.893 394.515 368.506 394.3L364.789 393.965C358.533 393.401 352.227 393.735 346.067 394.956Z" fill="#F8DDDD" stroke="#FBEFEF"/>
<path d="M269.933 395.81L273.664 396.55C277.14 397.239 280.501 398.406 283.652 400.016C287.159 401.808 290.365 404.128 293.155 406.895L297.726 411.429C298.359 412.057 298.887 412.783 299.287 413.577C300.768 416.515 300.355 420.044 298.235 422.567L295.639 425.657L291.265 429.995C288.32 432.916 284.888 435.308 281.12 437.066C278.035 438.507 274.758 439.505 271.39 440.033L264.905 441.048L256.24 441.392C251.881 441.565 247.516 441.358 243.194 440.774L238.721 440.169C237.111 439.951 235.524 439.585 233.982 439.075L228.962 437.415C226.047 436.451 223.595 434.449 222.083 431.795L221.407 430.609C220.797 429.539 220.476 428.33 220.476 427.101C220.476 425.21 221.234 423.396 222.582 422.059L226.258 418.413L223.314 415.494C221.202 413.399 220.465 410.3 221.409 407.49C221.796 406.338 222.449 405.291 223.314 404.432L224.953 402.807C227.201 400.577 230.015 398.989 233.097 398.21L240.418 396.359C242.741 395.772 245.107 395.368 247.494 395.153L251.211 394.818C257.467 394.254 263.773 394.588 269.933 395.81Z" fill="#F8DDDD" stroke="#FBEFEF"/>
<path d="M286.253 455.467L287.029 451.85C287.782 448.337 289.018 444.944 290.7 441.764C292.558 438.254 294.94 435.043 297.767 432.24L302.48 427.565C303.109 426.942 303.832 426.42 304.623 426.02C307.639 424.495 311.279 424.896 313.885 427.038L316.857 429.483L321.165 433.755C324.109 436.675 326.507 440.09 328.248 443.842C329.659 446.883 330.622 450.111 331.106 453.424L332.058 459.94L332.289 468.52C332.407 472.906 332.138 477.295 331.484 481.635L330.821 486.037C330.575 487.672 330.177 489.281 329.633 490.844L327.889 495.857C326.873 498.778 324.824 501.236 322.121 502.774L320.837 503.506C319.776 504.11 318.577 504.436 317.354 504.452C315.415 504.477 313.548 503.725 312.177 502.365L308.582 498.8L305.474 501.883C303.383 503.957 300.298 504.696 297.483 503.799C296.291 503.419 295.206 502.762 294.32 501.883L292.734 500.31C290.505 498.099 288.932 495.322 288.19 492.283L286.392 484.93C285.834 482.646 285.461 480.321 285.278 477.978L284.994 474.355C284.498 468.031 284.922 461.67 286.253 455.467Z" fill="#F8DDDD" stroke="#FBEFEF"/>
<ellipse cx="308.701" cy="417.98" rx="10.3284" ry="10.2434" fill="#FFFFF7"/>
<defs>
<filter id="filter0_d_169_289" x="0.585938" y="0.433594" width="818.729" height="1140.23" filterUnits="userSpaceOnUse" color-interpolation-filters="sRGB">
<feFlood flood-opacity="0" result="BackgroundImageFix"/>
<feColorMatrix in="SourceAlpha" type="matrix" values="0 0 0 0 0 0 0 0 0 0 0 0 0 0 0 0 0 0 127 0" result="hardAlpha"/>
<feOffset dy="2"/>
<feGaussianBlur stdDeviation="35"/>
<feComposite in2="hardAlpha" operator="out"/>
<feColorMatrix type="matrix" values="0 0 0 0 0 0 0 0 0 0 0 0 0 0 0 0 0 0 0.05 0"/>
<feBlend mode="normal" in2="BackgroundImageFix" result="effect1_dropShadow_169_289"/>
<feBlend mode="normal" in="SourceGraphic" in2="effect1_dropShadow_169_289" result="shape"/>
</filter>
</defs>
</svg>
