<svg width="200" height="200" viewBox="0 0 200 200" fill="none" xmlns="http://www.w3.org/2000/svg">
<path d="M88.7311 58.4168L90.8625 61.5876C92.8219 64.5026 94.3634 67.6778 95.4419 71.0205C96.6459 74.7518 97.259 78.6485 97.259 82.5693V88.9567C97.259 89.8528 97.1134 90.7431 96.8279 91.5926C95.7823 94.7035 92.9968 96.9023 89.7282 97.197L85.6395 97.5656H79.4379C75.2831 97.5656 71.1593 96.8515 67.2464 95.4545C64.032 94.3068 60.9957 92.711 58.2276 90.7143L52.9329 86.8954L46.5467 81.0489C43.351 78.1233 40.4185 74.9224 37.7832 71.4834L35.0382 67.9013C34.0597 66.6244 33.2027 65.2587 32.4785 63.8222L30.1093 59.1229C28.7348 56.3963 28.4292 53.2544 29.2528 50.3142L29.6134 49.0266C29.9483 47.8307 30.588 46.7423 31.4697 45.8678C32.8133 44.5353 34.629 43.7876 36.5213 43.7876H41.7438V39.7057C41.7438 36.7159 43.4383 33.9844 46.1168 32.6561C47.2034 32.1173 48.3998 31.8369 49.6126 31.8369H51.9466C55.1282 31.8369 58.2519 32.6883 60.9935 34.3027L67.4703 38.1167C69.5384 39.3345 71.5066 40.7144 73.3566 42.2433L76.2431 44.629C81.0477 48.5999 85.2538 53.2437 88.7311 58.4168Z" fill="#FDEBEB" stroke="#F9F4F4"/>
<path d="M89.1608 143.544L91.2922 140.373C93.2516 137.458 94.7931 134.283 95.8716 130.94C97.0756 127.209 97.6887 123.312 97.6887 119.391V113.004C97.6887 112.108 97.5431 111.217 97.2575 110.368C96.212 107.257 93.4265 105.058 90.1579 104.763L86.0692 104.395H79.8676C75.7128 104.395 71.589 105.109 67.6761 106.506C64.4617 107.654 61.4254 109.249 58.6572 111.246L53.3626 115.065L46.9764 120.912C43.7807 123.837 40.8482 127.038 38.2128 130.477L35.4679 134.059C34.4894 135.336 33.6324 136.702 32.9082 138.138L30.539 142.838C29.1645 145.564 28.8589 148.706 29.6825 151.646L30.0431 152.934C30.378 154.13 31.0176 155.218 31.8994 156.093C33.243 157.425 35.0587 158.173 36.951 158.173H42.1735V162.255C42.1735 165.245 43.8679 167.976 46.5465 169.304C47.6331 169.843 48.8295 170.124 50.0423 170.124H52.3763C55.5579 170.124 58.6816 169.272 61.4232 167.658L67.9 163.844C69.9681 162.626 71.9363 161.246 73.7863 159.717L76.6728 157.331C81.4774 153.361 85.6834 148.717 89.1608 143.544Z" fill="#FDEBEB" stroke="#F9F4F4"/>
<path d="M110.951 143.544L108.819 140.373C106.86 137.458 105.318 134.283 104.24 130.94C103.036 127.209 102.423 123.312 102.423 119.391V113.004C102.423 112.108 102.568 111.217 102.854 110.368C103.899 107.257 106.685 105.058 109.953 104.763L114.042 104.395H120.244C124.398 104.395 128.522 105.109 132.435 106.506C135.65 107.654 138.686 109.249 141.454 111.246L146.749 115.065L153.135 120.912C156.331 123.837 159.263 127.038 161.898 130.477L164.643 134.059C165.622 135.336 166.479 136.702 167.203 138.138L169.572 142.838C170.947 145.564 171.252 148.706 170.429 151.646L170.068 152.934C169.733 154.13 169.094 155.218 168.212 156.093C166.868 157.425 165.053 158.173 163.16 158.173H157.938V162.255C157.938 165.245 156.243 167.976 153.565 169.304C152.478 169.843 151.282 170.124 150.069 170.124H147.735C144.553 170.124 141.43 169.272 138.688 167.658L132.211 163.844C130.143 162.626 128.175 161.246 126.325 159.717L123.439 157.331C118.634 153.361 114.428 148.717 110.951 143.544Z" fill="#FDEBEB" stroke="#F9F4F4"/>
<path d="M110.951 57.5633L108.819 60.7341C106.86 63.6491 105.318 66.8243 104.24 70.167C103.036 73.8983 102.423 77.795 102.423 81.7158V88.1031C102.423 88.9993 102.568 89.8896 102.854 90.739C103.899 93.8499 106.685 96.0488 109.953 96.3435L114.042 96.7121H120.244C124.398 96.7121 128.522 95.998 132.435 94.6009C135.65 93.4533 138.686 91.8575 141.454 89.8608L146.749 86.0419L153.135 80.1954C156.331 77.2697 159.263 74.0689 161.898 70.6299L164.643 67.0478C165.622 65.7708 166.479 64.4052 167.203 62.9687L169.572 58.2694C170.947 55.5428 171.252 52.4009 170.429 49.4607L170.068 48.1731C169.733 46.9772 169.094 45.8888 168.212 45.0143C166.868 43.6818 165.053 42.9341 163.16 42.9341H157.938V38.8522C157.938 35.8624 156.243 33.1308 153.565 31.8026C152.478 31.2638 151.282 30.9834 150.069 30.9834H147.735C144.553 30.9834 141.43 31.8348 138.688 33.4492L132.211 37.2632C130.143 38.481 128.175 39.8609 126.325 41.3898L123.439 43.7755C118.634 47.7464 114.428 52.3902 110.951 57.5633Z" fill="#FDEBEB" stroke="#F9F4F4"/>
<path d="M123.686 62.4746L122.951 66.3103C122.288 69.7691 121.136 73.1178 119.529 76.2573C117.729 79.776 115.378 82.9902 112.564 85.7805L108.02 90.2872C107.371 90.9312 106.619 91.465 105.795 91.8672C102.82 93.32 99.2602 92.8959 96.7162 90.7854L93.4329 88.0617L88.9256 83.5916C85.9262 80.6168 83.4583 77.1582 81.6273 73.3634C80.1164 70.232 79.0556 66.906 78.4761 63.4825L77.3782 56.9968L76.9342 48.2325C76.7137 43.88 76.8797 39.5167 77.4302 35.193L78.009 30.647C78.2123 29.0502 78.5666 27.4758 79.067 25.9447L80.7161 20.8998C81.6712 17.9777 83.705 15.5217 86.4095 14.0245L87.5575 13.389C88.6711 12.7725 89.9278 12.455 91.2031 12.468C93.1198 12.4875 94.9525 13.2513 96.3079 14.5955L100.116 18.3718L102.985 15.5255C105.154 13.3752 108.367 12.6366 111.268 13.6217C112.427 14.0153 113.48 14.6665 114.346 15.5255L116.055 17.2203C118.36 19.507 120.014 22.3586 120.848 25.485L122.801 32.8104C123.431 35.1717 123.872 37.5785 124.119 40.0086L124.507 43.8128C125.142 50.0401 124.865 56.3257 123.686 62.4746Z" fill="#F8DDDD" stroke="#FBEFEF"/>
<path d="M138.067 77.9565L134.336 78.6966C130.86 79.386 127.499 80.5523 124.348 82.162C120.841 83.954 117.635 86.2749 114.845 89.0418L110.274 93.5753C109.641 94.2036 109.113 94.9291 108.713 95.7238C107.232 98.6616 107.645 102.19 109.765 104.714L112.361 107.803L116.735 112.142C119.68 115.062 123.112 117.454 126.88 119.213C129.965 120.653 133.242 121.652 136.61 122.179L143.095 123.195L151.76 123.539C156.119 123.712 160.484 123.505 164.806 122.92L169.279 122.315C170.889 122.097 172.476 121.731 174.018 121.221L179.038 119.562C181.953 118.598 184.405 116.595 185.917 113.942L186.593 112.756C187.203 111.685 187.524 110.477 187.524 109.247C187.524 107.356 186.766 105.543 185.418 104.206L181.742 100.56L184.686 97.6403C186.798 95.5454 187.535 92.4467 186.591 89.636C186.204 88.484 185.551 87.4373 184.686 86.5786L183.047 84.9539C180.799 82.7236 177.985 81.1353 174.903 80.3562L167.582 78.5053C165.259 77.9181 162.893 77.515 160.506 77.2997L156.789 76.9646C150.533 76.4005 144.227 76.7346 138.067 77.9565Z" fill="#F8DDDD" stroke="#FBEFEF"/>
<path d="M61.9329 78.81L65.6643 79.5502C69.1396 80.2395 72.501 81.4058 75.6516 83.0155C79.1591 84.8075 82.365 87.1284 85.1549 89.8954L89.7259 94.4288C90.3594 95.0571 90.8866 95.7826 91.2873 96.5774C92.7684 99.5151 92.3554 103.044 90.2353 105.567L87.6393 108.657L83.2646 112.995C80.3201 115.916 76.888 118.308 73.1203 120.066C70.0345 121.507 66.7584 122.505 63.3897 123.033L56.9047 124.048L48.2397 124.392C43.8813 124.565 39.5161 124.358 35.1943 123.774L30.721 123.169C29.1106 122.951 27.5242 122.585 25.9824 122.075L20.9623 120.415C18.0466 119.451 15.5951 117.449 14.0828 114.795L13.407 113.609C12.797 112.539 12.4764 111.33 12.4764 110.101C12.4764 108.21 13.2338 106.396 14.582 105.059L18.2582 101.413L15.3144 98.4939C13.2021 96.3989 12.4645 93.3002 13.4092 90.4895C13.7964 89.3375 14.4487 88.2908 15.3144 87.4321L16.9526 85.8075C19.2015 83.5771 22.0147 81.9888 25.0966 81.2097L32.4181 79.3588C34.7409 78.7716 37.1071 78.3685 39.4943 78.1532L43.2109 77.8181C49.4672 77.2541 55.7728 77.5881 61.9329 78.81Z" fill="#F8DDDD" stroke="#FBEFEF"/>
<path d="M78.253 138.467L79.0289 134.85C79.7823 131.337 81.0176 127.944 82.7003 124.764C84.5578 121.254 86.9402 118.043 89.7665 115.24L94.4802 110.565C95.1086 109.942 95.8318 109.42 96.6235 109.02C99.6386 107.495 103.279 107.896 105.885 110.038L108.857 112.483L113.165 116.755C116.109 119.675 118.507 123.09 120.248 126.842C121.659 129.883 122.622 133.111 123.106 136.424L124.058 142.94L124.289 151.52C124.407 155.906 124.138 160.295 123.484 164.635L122.821 169.037C122.575 170.672 122.177 172.281 121.633 173.844L119.889 178.857C118.873 181.778 116.824 184.236 114.121 185.774L112.837 186.506C111.776 187.11 110.577 187.436 109.354 187.452C107.415 187.477 105.548 186.725 104.177 185.365L100.582 181.8L97.4738 184.883C95.383 186.957 92.2983 187.696 89.4834 186.799C88.2905 186.419 87.2062 185.762 86.3203 184.883L84.7341 183.31C82.5047 181.099 80.9324 178.322 80.1896 175.283L78.3923 167.93C77.8339 165.646 77.4612 163.321 77.2776 160.978L76.9937 157.355C76.4983 151.031 76.9224 144.67 78.253 138.467Z" fill="#F8DDDD" stroke="#FBEFEF"/>
<ellipse cx="100.701" cy="100.98" rx="10.3284" ry="10.2434" fill="#FFFFF7"/>
</svg>
