<svg width="684" height="1018" viewBox="0 0 684 1018" fill="none" xmlns="http://www.w3.org/2000/svg">
<path d="M291.818 1009.41L309.172 944.563L320.081 947.511L302.231 1013.34L291.818 1009.41Z" fill="#58904F" stroke="#58904F"/>
<path d="M324.545 1002.05L328.512 941.616H339.42L335.949 1002.05H324.545Z" fill="#58904F" stroke="#58904F"/>
<path d="M348.344 1007.45V943.581H362.723V1007.45H348.344Z" fill="#58904F" stroke="#58904F"/>
<path d="M389.06 982.611L387.018 918.774L401.885 918.307L403.927 982.144L389.06 982.611Z" fill="#58904F" stroke="#58904F"/>
<path d="M420.133 999.153L407.777 936.469L422.376 933.643L434.732 996.327L420.133 999.153Z" fill="#58904F" stroke="#58904F"/>
<path d="M369.224 998.304L367.137 934.47L380.022 934.056L382.109 997.891L369.224 998.304Z" fill="#58904F" stroke="#58904F"/>
<g filter="url(#filter0_d_478_419)">
<path d="M135.673 468.297L113.867 411.283L92.2265 336.165C87.5779 320.029 87.3891 302.934 91.6802 286.699C96.139 269.829 105.258 254.556 117.993 242.628L146.437 215.985C156.017 207.012 167.27 200.012 179.553 195.386L231.506 175.819C236.66 173.878 241.965 172.367 247.367 171.299L346.756 151.66C361.14 148.818 375.974 149.174 390.206 152.703L445.908 166.513L500.918 187.157L558.38 213.309C568.243 217.798 577.311 223.86 585.229 231.259L605.326 250.037C623.131 266.675 633.238 289.952 633.238 314.321C633.238 323.85 631.69 333.317 628.654 342.35L605.486 411.283L584.671 468.297L561.379 516.956L536.546 556.523C532.957 562.242 528.797 567.583 524.132 572.464L500.869 596.799C496.944 600.905 492.676 604.67 488.111 608.051L463.635 626.184C457.127 631.006 450.058 635.018 442.582 638.135L419.642 647.697C405.089 655.904 398.673 673.482 404.519 689.134L482.931 899.104C483.345 900.213 483.352 901.433 482.951 902.547L481.567 906.389C481.283 907.177 480.536 907.703 479.698 907.703H475.257C462.235 907.703 450.438 915.382 445.167 927.289C445.006 927.654 444.718 927.947 444.356 928.115L405.401 946.24C405.002 946.426 404.543 946.436 404.135 946.268L400.819 944.903C388.056 939.649 373.376 944.678 366.515 956.654C366.27 957.081 365.815 957.345 365.323 957.345H310.217C308.082 957.345 306.183 955.989 305.489 953.97L299.435 936.357C299.289 935.932 299.105 935.521 298.885 935.13L298.729 934.85C297.499 932.655 295.179 931.295 292.662 931.295C290.828 931.295 289.068 932.02 287.766 933.311L286.433 934.633C284.564 936.487 281.775 937.057 279.329 936.087C278.714 935.843 278.138 935.508 277.622 935.093L234.131 900.132C232.453 898.783 231.827 896.511 232.577 894.492L309.374 687.943C314.976 672.877 309.039 655.958 295.25 647.697L269.48 633.443L236.094 610.115C229.303 605.37 223.129 599.8 217.712 593.532L193.16 565.124L160.947 516.956L135.673 468.297Z" fill="white"/>
</g>
<rect x="289.832" y="649.079" width="130.899" height="29.4776" rx="10" fill="#FFC7E3"/>
<rect x="288.84" y="650.062" width="11.8999" height="9.82587" fill="#FFC7E3"/>
<path d="M163.891 644.165L297.269 649.569L291.319 669.221L163.891 675.608L178.27 658.904L163.891 644.165Z" fill="#FCA4D0"/>
<path d="M157.941 651.044L291.32 656.448L285.37 676.1L157.941 682.487L172.32 665.783L157.941 651.044Z" fill="#FFC7E3"/>
<path d="M222.896 707.052L291.817 667.748L320.079 671.187L239.754 734.073L238.267 714.912L222.896 707.052Z" fill="#FCA4D0"/>
<path d="M223.391 716.388L292.311 677.084L320.573 680.523L240.249 743.409L238.761 724.248L223.391 716.388Z" fill="#FFC7E3"/>
<path d="M354.202 677.506C354.202 677.506 341.796 681.006 331.435 687.842C322.906 693.456 315.188 701.983 315.188 701.983L317.396 722.843L323.505 727.459L349.127 704.403C349.127 704.403 352.769 694.889 354.073 688.37C354.754 685.011 355.106 681.722 355.106 681.722L354.202 677.506ZM364.728 680.113C364.728 680.113 367.324 689.921 368.276 693.808C369.356 698.201 371.436 705.342 371.436 705.342L396.917 723.453L406.55 704.602C406.55 704.602 401.134 697.884 398.221 694.372C395.307 690.86 378.755 679.432 378.755 679.432L364.728 680.113V680.113Z" fill="#F395C4"/>
<path d="M299.092 733.93C299.092 733.93 299.973 725.861 306.599 714.327C313.224 702.793 316.478 700.785 316.478 700.785C316.478 700.785 320.308 699.892 323.703 699.481C327.369 699.035 330.423 699.375 330.423 699.375C330.423 699.375 325.806 704.99 323.198 710.404C320.59 715.819 318.981 720.94 320.896 721.938C322.799 722.936 324.925 716.065 329.025 709.805C333.336 703.204 336.626 699.963 336.626 699.963C336.626 699.963 339.915 700.068 343.346 701.09C347.14 702.218 349.243 704.144 349.243 704.144C349.243 704.144 342.476 722.337 338.764 732.873C335.052 743.408 329.695 757.385 328.391 757.89C327.087 758.395 324.819 754.343 323.41 751.137C322 747.93 317.195 730.876 316.89 731.182C316.584 731.487 299.092 733.93 299.092 733.93V733.93ZM371.423 705.26C371.423 705.26 374.371 703.275 376.78 702.464C379.188 701.666 383.452 700.984 383.452 700.984C383.452 700.984 386.013 705.988 388.01 709.406C390.019 712.812 393.285 719.836 395.388 718.825C397.491 717.827 394.789 710.733 393.226 707.597C391.805 704.743 389.314 700.879 389.314 700.879C389.314 700.879 392.428 700.479 398.137 701.583C403.858 702.687 406.56 704.59 406.56 704.59C406.56 704.59 411.847 712.436 414.69 717.228C418.472 723.618 423.218 734.47 423.218 734.47L402.249 736.185L391.711 759.253C391.711 759.253 390.254 759.347 389.444 758.853C388.645 758.348 384.85 747.93 382.794 741.823C379.564 732.18 371.423 705.26 371.423 705.26V705.26Z" fill="#FFC7E3"/>
<path d="M401.041 734.189C400.23 734.94 392.394 754.402 392.159 754.978C390.949 757.961 389.293 758.642 389.293 758.642C389.293 758.642 390.714 760.686 393.123 759.981C394.979 759.441 403.813 738.523 403.813 738.523C403.813 738.523 419.778 738.675 422.104 737.665C424.712 736.538 423.185 734.412 423.185 734.412C423.185 734.412 402.122 733.178 401.041 734.189ZM299.129 733.484C299.129 733.484 303.852 732.626 308.198 731.475C312.545 730.324 318.113 728.692 318.113 728.692C318.113 728.692 322.507 740.695 323.823 744.724C325.139 748.753 328.569 757.761 328.569 757.761C328.569 757.761 327.077 759.37 324.927 758.043C322.918 756.798 319.077 746.18 318.066 743.362C316.774 739.791 315.094 734.494 315.094 734.494C315.094 734.494 310.536 736.009 306.742 736.702C302.947 737.395 300.374 737.9 299.364 736.89C298.354 735.892 299.129 733.484 299.129 733.484ZM337.908 652.253L316.116 646.663L300.715 659.183L294.324 689.721L297.813 695.594C297.813 695.594 301.596 698.483 312.24 696.11C322.883 693.726 346.919 684.471 346.919 684.471C346.919 684.471 349.985 685.739 352.734 686.115C355.483 686.491 360.17 685.504 360.17 685.504C360.17 685.504 366.068 686.467 369.58 686.221C373.081 685.974 374.585 685.598 374.585 685.598C374.585 685.598 386.109 691.729 397.622 694.983C409.135 698.236 418.028 698.976 420.037 698.741C423.162 698.365 424.665 693.104 424.665 693.104L423.408 681.581L406.633 645.523L371.695 655.542L369.569 657.926L360.417 655.436L348 657.879L346.437 656.047L337.908 652.253Z" fill="#FCA4D0"/>
<path d="M347.574 657.421C347.574 657.421 348.96 653.122 359.404 653.122C369.143 653.122 370.459 656.975 370.459 656.975C370.459 656.975 371.728 665.431 370.576 672.76C369.554 679.314 365.924 686.162 365.924 686.162C365.924 686.162 363.516 686.761 359.792 686.866C356.279 686.96 352.543 686.079 352.543 686.079C352.543 686.079 349.231 680.242 347.833 672.913C346.493 665.819 347.574 657.421 347.574 657.421V657.421Z" fill="#FFC7E3"/>
<path d="M353.814 671.164C355.811 671.563 356.951 666.195 358.208 664.727C360.181 662.437 364.857 662.883 364.775 659.818C364.716 657.398 355.811 656.282 352.604 660.769C350.372 663.905 350.63 670.529 353.814 671.164V671.164Z" fill="#FFE2F0"/>
<path d="M371.682 655.542C371.682 655.542 373.01 657.163 374.184 660.075C375.054 662.213 375.994 665.337 375.994 665.337C375.994 665.337 380.317 661.567 384.017 659.523C387.706 657.48 405.339 651.219 405.798 659.758C406.162 666.7 393.169 666.559 387.072 669.037C382.784 670.775 376.945 674.064 376.945 674.064V681.135C376.945 681.135 379.765 684.141 386.367 684.694C392.969 685.246 409.898 685.046 413.234 685.187C420.177 685.48 422.609 688.593 422.609 692.293C422.609 695.981 421.305 697.496 421.739 697.977C422.303 698.612 425.205 696.298 426.779 690.319C428.353 684.341 429.563 673.171 429.093 663.599C428.541 652.288 426.309 637.149 421.258 634.33C416.206 631.511 401.474 635.269 392.828 638.969C378.284 645.194 371.682 655.542 371.682 655.542ZM342.618 664.903C342.618 664.903 343.159 662.119 344.181 659.911C344.98 658.184 346.448 656.059 346.448 656.059C346.448 656.059 343.676 648.835 333.467 642.974C323.258 637.113 301.901 632.533 295.099 635.117C291.715 636.397 288.438 645.077 287.439 658.255C286.581 669.695 287.709 683.39 291.316 690.143C294.03 695.229 300.914 699.011 303.005 696.92C304.027 695.898 296.226 692.351 303.663 687.677C307.974 684.975 316.221 685.21 323.375 684.74C330.53 684.271 333.584 684.623 337.343 683.683C341.103 682.744 343.441 681.334 343.441 681.334C343.441 681.334 342.559 678.398 342.383 676.989C342.137 675.062 341.984 673.489 341.984 673.489C341.984 673.489 339.505 672.091 332.997 671.01C326.618 669.941 316.139 670.176 315.986 663.153C315.786 654.238 326.077 656.47 330.882 658.455C335.687 660.44 342.031 664.315 342.618 664.903Z" fill="#FFC7E3"/>
<path d="M156.568 175.167C166.951 163.842 179.803 155.062 194.129 149.508L266.142 121.587L339.803 103.785C357.247 99.5694 375.505 100.126 392.66 105.396L447.419 122.219C452.616 123.815 457.673 125.833 462.542 128.252L532.549 163.029C541.143 167.298 549.077 172.782 556.108 179.311L580.452 201.919C593.054 213.621 602.424 228.375 607.659 244.756L616.338 271.918C618.243 277.877 618.725 284.2 617.748 290.379V290.379C614.808 308.96 599.34 322.995 580.562 324.12L359.932 337.345L148.553 324.444C126.583 323.104 108.007 307.7 102.623 286.359V286.359C100.336 277.295 100.607 267.774 103.407 258.856L109.013 240.997C113.401 227.016 120.809 214.17 130.712 203.369L156.568 175.167Z" fill="#F5F5F5"/>
<path d="M539.309 288.052L516.156 291.531C515.268 291.664 514.532 291.169 514.361 290.323L511.976 278.562C510.121 269.417 509.666 259.738 510.625 249.836C512.029 235.342 516.435 220.657 523.543 206.779L525.432 203.091C531.642 190.968 539.926 179.763 549.792 170.143C560.875 159.337 573.682 150.797 587.253 145.163L596.418 141.358C601.557 139.225 606.766 137.492 611.995 136.176L621.454 133.796C622.695 133.484 623.661 134.39 623.456 135.675L619.913 157.948L614.762 192.708C613.017 204.482 609.337 216.291 603.883 227.613L595.898 244.192C591.374 253.583 584.949 262.189 577.151 269.304C566.05 279.432 552.717 286.038 539.309 288.052Z" fill="#58904F"/>
<path d="M521.826 285.821C520.703 287.499 518.593 288.064 517.346 287.021V287.021C516.298 286.144 516.241 284.428 517.213 283.035L614.676 143.397C614.757 143.281 614.851 143.174 614.955 143.078L615.527 142.551C616.195 141.937 617.107 142.202 617.131 143.017V143.017C617.139 143.261 617.06 143.517 616.909 143.742L521.826 285.821Z" fill="#436F40"/>
<rect width="5.03061" height="296.103" transform="matrix(0.951922 -0.306341 0.380659 0.924716 107.213 44.8467)" fill="#618967"/>
<path d="M118.115 53.7234C116.812 40.4164 127.107 29.8759 141.109 30.1805V30.1805C155.111 30.4852 167.541 41.7428 168.843 55.0498V55.0498C170.171 68.6057 159.706 79.5707 145.441 79.2603L120.562 78.719L118.115 53.7234Z" fill="#618967"/>
<path d="M216.868 256.211C223.063 246.875 235.9 245.187 245.54 252.439V252.439C255.179 259.691 257.971 273.137 251.776 282.473L250.211 284.83C243.151 295.467 228.524 297.392 217.541 289.128L202.521 277.829L216.868 256.211Z" fill="#618967"/>
<path d="M171.619 183.688C170.319 170.381 180.617 159.838 194.619 160.139V160.139C208.621 160.441 221.047 171.696 222.347 185.003V185.003C223.671 198.559 213.204 209.527 198.94 209.22L174.061 208.684L171.619 183.688Z" fill="#618967"/>
<path d="M116.871 111.255C104.667 119.098 87.8944 115.394 79.4088 102.982L77.3921 100.032C70.0202 89.2485 72.6388 74.9836 83.2409 68.1703V68.1703C93.843 61.3569 108.414 64.575 115.786 75.3582L133.167 100.783L116.871 111.255Z" fill="#618967"/>
<path d="M141.662 164.346C129.458 172.189 112.685 168.485 104.2 156.072L102.183 153.122C94.8112 142.339 97.4298 128.074 108.032 121.261V121.261C118.634 114.448 133.205 117.666 140.577 128.449L157.958 153.873L141.662 164.346Z" fill="#618967"/>
<path d="M177.284 254.204C166.836 260.919 152.476 257.747 145.21 247.12L143.869 245.159C137.345 235.615 139.662 222.989 149.046 216.959V216.959C158.43 210.929 171.326 213.777 177.85 223.321L192.346 244.525L177.284 254.204Z" fill="#618967"/>
<path d="M162.188 203.308C153.529 208.873 141.629 206.244 135.608 197.438L134.592 195.952C129.133 187.966 131.072 177.401 138.924 172.355V172.355C146.776 167.309 157.567 169.692 163.027 177.678L174.944 195.11L162.188 203.308Z" fill="#618967"/>
<path d="M192.98 301.575C183.689 307.546 170.919 304.726 164.458 295.275V295.275C157.997 285.825 160.292 273.323 169.584 267.352L170.658 266.662C180.543 260.31 194.128 263.31 201.001 273.364L211.952 289.383L192.98 301.575Z" fill="#618967"/>
<path d="M141.294 86.7719C147.819 78.8407 159.829 78.3872 168.04 85.6894V85.6894C176.18 92.9296 177.598 105.23 171.128 113.093V113.093C164.657 120.957 152.813 121.463 144.672 114.223L129.679 100.888L141.294 86.7719Z" fill="#618967"/>
<path d="M155.091 134.934C156.468 125.199 165.85 119.502 176.046 122.21V122.21C186.242 124.917 193.392 135.003 192.015 144.738L191.801 146.249C190.306 156.818 180.12 163.004 169.05 160.064L152.171 155.582L155.091 134.934Z" fill="#618967"/>
<path d="M195.225 216.249C202.738 209.058 214.917 209.758 222.429 217.814L222.753 218.162C230.086 226.026 230.085 238.092 222.751 245.113V245.113C215.417 252.133 203.528 251.449 196.196 243.585L182.271 228.65L195.225 216.249Z" fill="#618967"/>
<path d="M508.929 276.162L489.688 286.671C488.908 287.097 488.118 286.848 487.765 286.065L479.617 268.001C476.339 260.732 473.912 252.733 472.395 244.193L470.136 231.481C467.844 218.577 467.663 204.636 469.603 190.409L471.647 175.429C473.624 160.932 477.801 146.414 483.937 132.712C491.708 115.36 502.399 99.8099 515.035 87.4831L520.113 82.5291C524.856 77.9021 529.83 73.7594 534.972 70.154L542.808 64.6597C543.84 63.9364 544.929 64.4491 545.091 65.7343L548.662 94.0139L555.293 143.076C556.727 153.683 556.785 164.901 555.465 176.335L551.89 207.296C550.646 218.064 547.463 228.897 542.594 238.93C534.602 255.397 522.556 268.719 508.929 276.162Z" fill="#7AA573"/>
<path d="M493.598 277.443C492.997 279.953 490.757 281.571 489.121 280.677V280.677C488.012 280.07 487.545 278.467 487.982 276.768L539.078 78.3702C539.116 78.2231 539.169 78.0787 539.235 77.9411L539.48 77.4301C539.977 76.3961 541.078 76.2724 541.351 77.2199V77.2199C541.42 77.4619 541.421 77.7447 541.353 78.0277L493.598 277.443Z" fill="#436F40"/>
<path d="M572.943 301.834L546.648 295.871C545.94 295.71 545.437 295.111 545.405 294.391L545.078 286.875C544.778 280.004 545.981 273.09 548.606 266.6C552.014 258.177 557.697 250.762 565.021 245.185L570.131 241.294C577.498 235.684 585.836 231.481 594.69 228.915L599.768 227.443C610.444 224.348 621.5 223.026 632.475 223.532L653.4 224.496L669.97 227.077C671.286 227.282 671.984 228.683 671.367 229.881L664.998 242.241L657.594 257.189C652.194 268.089 644.447 277.765 634.914 285.514L632.382 287.572C624.365 294.09 615.027 298.794 605.067 301.334C594.452 304.041 583.433 304.213 572.943 301.834Z" fill="#7CAA74"/>
<path d="M552.436 294.404C551.445 294.961 550.223 294.79 549.481 293.991V293.991C548.425 292.856 548.789 291 550.215 290.242L662.53 230.56C662.638 230.502 662.753 230.457 662.872 230.426L664.006 230.128C664.545 229.986 665.031 230.433 664.923 230.97V230.97C664.879 231.194 664.735 231.39 664.532 231.504L552.436 294.404Z" fill="#436F40"/>
<path d="M181.969 290.861L189.181 311.614C189.473 312.452 189.154 313.344 188.4 313.799L181.099 318.206C174.869 321.966 167.942 324.633 160.627 326.087C150.389 328.122 139.655 327.729 129.349 324.944L126.161 324.082C115.93 321.317 106.281 316.653 97.7836 310.368L96.8251 309.659C87.7234 302.926 80.0366 294.597 74.217 285.163L65.2225 270.581L59.1559 256.975C58.6311 255.798 59.3725 254.52 60.6719 254.361L76.2698 252.453L97.5008 249.576C108.842 248.038 120.506 248.64 131.838 251.347L139.387 253.151C148.115 255.236 156.31 259.227 163.305 264.799C171.971 271.701 178.458 280.76 181.969 290.861Z" fill="#58904F"/>
<path d="M184.457 308.247C185.719 308.779 186.357 310.15 185.894 311.337V311.337C185.407 312.586 183.897 313.138 182.582 312.549L66.4014 260.498C66.2959 260.451 66.1966 260.391 66.1061 260.32L65.4507 259.806C64.9539 259.417 65.0512 258.684 65.6274 258.475V258.475C65.8272 258.403 66.0531 258.41 66.2558 258.496L184.457 308.247Z" fill="#436F40"/>
<path d="M192.876 265.988L186.847 287.431C186.613 288.262 185.819 288.865 184.899 288.909L176.213 289.325C168.676 289.686 161.166 288.783 154.045 286.658C144.199 283.719 135.364 278.527 128.341 271.551L125.738 268.967C118.756 262.032 113.373 253.837 109.906 244.862L109.249 243.162C105.459 233.352 103.775 222.905 104.292 212.397L105.126 195.435L107.873 180.988C108.107 179.758 109.516 179.026 110.744 179.497L125.075 184.995L144.373 192.103C155.225 196.1 165.048 202.095 173.261 209.735L178.096 214.232C184.54 220.225 189.338 227.575 192.105 235.69C195.432 245.447 195.699 255.949 192.876 265.988Z" fill="#7CAA74"/>
<path d="M183.694 279.576C184.438 280.58 184.198 281.967 183.147 282.746V282.746C181.977 283.612 180.284 283.381 179.487 282.245L110.843 184.505C110.78 184.415 110.729 184.317 110.693 184.214L110.417 183.427C110.226 182.882 110.733 182.33 111.345 182.416V182.416C111.565 182.447 111.76 182.56 111.885 182.728L183.694 279.576Z" fill="#436F40"/>
<defs>
<filter id="filter0_d_478_419" x="38.5957" y="109.764" width="644.643" height="907.581" filterUnits="userSpaceOnUse" color-interpolation-filters="sRGB">
<feFlood flood-opacity="0" result="BackgroundImageFix"/>
<feColorMatrix in="SourceAlpha" type="matrix" values="0 0 0 0 0 0 0 0 0 0 0 0 0 0 0 0 0 0 127 0" result="hardAlpha"/>
<feOffset dy="10"/>
<feGaussianBlur stdDeviation="25"/>
<feComposite in2="hardAlpha" operator="out"/>
<feColorMatrix type="matrix" values="0 0 0 0 0 0 0 0 0 0 0 0 0 0 0 0 0 0 0.05 0"/>
<feBlend mode="normal" in2="BackgroundImageFix" result="effect1_dropShadow_478_419"/>
<feBlend mode="normal" in="SourceGraphic" in2="effect1_dropShadow_478_419" result="shape"/>
</filter>
</defs>
</svg>
