<svg width="180" height="179" viewBox="0 0 180 179" fill="none" xmlns="http://www.w3.org/2000/svg">
<path d="M53.2965 32.5183V37.4052C53.2965 41.1181 54.0188 44.7956 55.4231 48.2327L57.1348 52.4222L54.314 49.0681C52.0638 46.3924 49.2537 44.2432 46.0821 42.7724L43.7864 41.7078C42.1497 40.9487 40.3673 40.5556 38.5632 40.5556C35.6812 40.5556 32.889 41.5582 30.6654 43.3914L26.1122 47.1453C25.0476 48.023 24.0923 49.0256 23.2669 50.1313C20.9634 53.2174 17.6918 55.4422 13.9751 56.4502L11.8715 57.0207C11.0227 57.2509 10.1962 57.5567 9.40199 57.9344C6.15269 59.4799 3.57965 62.1679 2.1736 65.48C1.4 67.3022 1 69.2647 1 71.2444V71.9604C1 75.3495 1.94308 78.6717 3.72371 81.5553L5.37895 84.2359C6.90744 86.7112 7.71698 89.563 7.71698 92.4722V98.0734C7.71698 99.9269 8.06106 101.764 8.73172 103.492C9.93963 106.604 12.1527 109.223 15.0195 110.934L15.6563 111.314C18.3103 112.897 21.3433 113.733 24.4338 113.733H37.9434C33.5105 115.365 29.4502 117.87 26.0031 121.099L25.9488 121.15L23.0967 124.541C20.9103 127.141 19.7116 130.429 19.7116 133.826C19.7116 136.216 20.3052 138.568 21.4391 140.671L23.7292 144.919C24.2486 145.883 24.8428 146.804 25.5063 147.674L26.7892 149.357C28.7338 151.907 29.7871 155.026 29.7871 158.233V163.292C29.7871 165.813 30.4198 168.293 31.6274 170.505L31.8352 170.886C33.3063 173.581 35.6347 175.708 38.4515 176.93C41.5256 178.264 44.9802 178.433 48.1699 177.406L50.0926 176.787C50.6273 176.615 51.1391 176.378 51.6169 176.083C52.7149 175.404 53.9803 175.044 55.2713 175.044H57.1348H61.6779C63.0938 175.044 64.4765 175.474 65.6435 176.275C68.0325 177.917 71.1858 177.917 73.5748 176.275L77.3506 173.681C77.9461 173.272 78.5083 172.816 79.0317 172.319L81.3127 170.149C83.4112 168.152 85.1621 165.82 86.4933 163.248C87.7046 160.907 88.5537 158.396 89.0116 155.801L90.2399 148.839L91.6792 159.717L92.3877 162.491C93.4892 166.805 95.8624 170.687 99.199 173.634L99.9293 174.28C100.505 174.788 101.128 175.241 101.791 175.631C105.352 177.728 109.74 177.852 113.415 175.959L115.189 175.044L117.268 174.187C119.063 173.447 120.985 173.067 122.927 173.067H125.376C127.167 173.067 128.904 173.677 130.302 174.797C131.699 175.917 133.437 176.528 135.228 176.528H135.583C137 176.528 138.395 176.189 139.654 175.541L141.532 174.573C143.46 173.58 145.16 172.196 146.523 170.509C148.31 168.301 149.459 165.646 149.85 162.833L150.693 156.75V152.649C150.693 149.9 151.82 147.272 153.811 145.378C155.803 143.483 156.93 140.855 156.93 138.107V134.151C156.93 131.767 156.48 129.385 155.618 127.163C154.592 124.52 152.992 122.109 150.949 120.144L146.854 116.206H152.216C154.384 116.206 156.537 115.846 158.588 115.142L159.459 114.842C161.586 114.112 163.527 112.926 165.147 111.367C168.174 108.456 169.884 104.438 169.884 100.239V97.4167V90.5043C169.884 88.8842 170.352 87.2985 171.232 85.9382C171.611 85.352 172.062 84.8154 172.574 84.3407L174.443 82.607C175.867 81.2867 177.005 79.6891 177.789 77.9127C178.588 76.1019 179 74.1445 179 72.1654V72.0354C179 69.548 178.375 67.1003 177.184 64.9169L177.099 64.761C175.528 61.883 173.088 59.575 170.127 58.1667L169.616 57.9237C168.836 57.5529 168.03 57.2409 167.204 56.9905L165.29 56.4104C162.01 55.4161 159.036 53.6038 156.649 51.1438C155.878 50.3493 155.174 49.4927 154.543 48.5828L152.453 45.5674C151.294 43.8949 149.78 42.4986 148.019 41.4781C144.818 39.6223 141.007 39.1259 137.437 40.0998L126.704 43.0278V31.7596C126.704 29.1121 125.922 26.5235 124.458 24.3179L123.199 22.4218C121.492 19.8509 118.611 18.3056 115.525 18.3056C112.872 18.3056 110.347 17.1612 108.599 15.1657L100.075 5.44084C98.6581 3.82395 96.8628 2.58293 94.8495 1.82846L94.7856 1.80451C93.366 1.2725 91.8623 1 90.3462 1H90.2185C88.6487 1 87.0942 1.30784 85.6429 1.90609C83.9329 2.61101 82.4088 3.70152 81.1897 5.09252L72.4853 15.0239C70.6574 17.1096 68.0188 18.3056 65.2455 18.3056C62.2499 18.3056 59.425 19.7 57.6033 22.0781L56.2266 23.8751C54.3263 26.3557 53.2965 29.3934 53.2965 32.5183Z" fill="#ADB4F4" stroke="#C4CDF9"/>
<ellipse cx="90.241" cy="53.9053" rx="7.67655" ry="7.91111" fill="#93A2ED"/>
<path d="M89.1776 74.7063L87.6001 60.0747C87.4726 58.8922 88.3991 57.8604 89.5886 57.8604H90.8915C92.0809 57.8604 93.0075 58.8922 92.88 60.0747L91.3025 74.7063C91.244 75.249 90.7859 75.6604 90.24 75.6604C89.6942 75.6604 89.2361 75.249 89.1776 74.7063Z" fill="#93A2ED" stroke="#93A2ED"/>
<ellipse rx="7.888" ry="7.70029" transform="matrix(0.307516 0.951543 -0.945839 0.324637 126.133 78.7443)" fill="#93A2ED"/>
<path d="M106.694 84.2561L119.554 78.143C120.635 77.6293 121.904 78.1749 122.271 79.3112L122.712 80.6765C123.08 81.8128 122.382 83.0334 121.218 83.2901L107.369 86.3447C106.821 86.4654 106.277 86.1529 106.104 85.6184C105.932 85.0839 106.185 84.4977 106.694 84.2561Z" fill="#93A2ED" stroke="#93A2ED"/>
<ellipse rx="7.888" ry="7.70029" transform="matrix(-0.307516 0.951543 0.945839 0.324637 53.8947 78.7443)" fill="#93A2ED"/>
<path d="M73.3338 84.2561L60.473 78.143C59.3923 77.6293 58.1235 78.1749 57.7563 79.3112L57.3151 80.6765C56.9478 81.8128 57.6458 83.0334 58.8096 83.2901L72.6588 86.3447C73.2063 86.4654 73.7502 86.1529 73.923 85.6184C74.0957 85.0839 73.8422 84.4977 73.3338 84.2561Z" fill="#93A2ED" stroke="#93A2ED"/>
<ellipse rx="7.72657" ry="7.86227" transform="matrix(0.882669 0.469995 0.448188 -0.893939 68.9199 126.31)" fill="#93A2ED"/>
<path d="M77.2356 107.337L69.3324 119.565C68.6879 120.563 69.0428 121.922 70.0936 122.482L71.2714 123.109C72.3222 123.668 73.6036 123.18 74.02 122.061L79.1257 108.343C79.3179 107.827 79.0961 107.24 78.611 106.982C78.1259 106.723 77.5332 106.876 77.2356 107.337Z" fill="#93A2ED" stroke="#93A2ED"/>
<ellipse rx="7.72657" ry="7.86227" transform="matrix(-0.882669 0.469995 -0.448188 -0.893939 112.51 126.31)" fill="#93A2ED"/>
<path d="M104.194 107.337L112.097 119.565C112.742 120.563 112.387 121.922 111.336 122.482L110.158 123.109C109.107 123.668 107.826 123.18 107.41 122.061L102.304 108.343C102.112 107.827 102.334 107.24 102.819 106.982C103.304 106.723 103.897 106.876 104.194 107.337Z" fill="#93A2ED" stroke="#93A2ED"/>
<ellipse cx="90.2422" cy="92.4721" rx="19.1914" ry="19.7778" fill="#93A2ED"/>
<circle cx="89.9991" cy="92.67" r="15.13" fill="#FEF6FF"/>
</svg>
