<svg width="188" height="189" viewBox="0 0 188 189" fill="none" xmlns="http://www.w3.org/2000/svg">
<path d="M44.2645 66.8159L67.0679 64.8508L69.0508 47.1642L71.5294 32.9167L73.3908 26.5919C74.4602 22.9582 75.9156 19.4494 77.7322 16.1256L79.6326 12.6487C80.8338 10.4509 82.3475 8.43906 84.1265 6.676L87.0004 3.82772C88.5528 2.28921 90.5046 1.21565 92.6352 0.728366C94.7186 0.251879 96.8927 0.354381 98.922 1.02478L99.0475 1.06622C100.837 1.65746 102.465 2.65571 103.804 3.98251L105.472 5.63517C106.961 7.11139 108.234 8.79145 109.252 10.6251L111.172 14.0864C112.502 16.4825 113.632 18.9839 114.552 21.5653L116.167 26.1024C118.131 31.6172 119.607 37.2938 120.578 43.0668L122.093 52.0771L139.444 45.199L143.493 44.0284C148.717 42.5186 154.054 41.4373 159.453 40.7952L163.734 40.2861H168.714C171.647 40.2861 174.553 40.8412 177.28 41.9221L178.707 42.488C179.955 42.9823 181.119 43.6637 182.161 44.5086L182.984 45.176C184.955 46.7738 186.274 49.0359 186.695 51.5377C186.918 52.8672 186.882 54.2276 186.587 55.5431L186.042 57.9726C185.054 60.9115 183.745 63.7326 182.139 66.385L181.043 68.1951C178.437 72.4998 175.312 76.4679 171.737 80.0101L164.726 86.959L147.871 100.224L150.845 107.593L154.811 119.876L157.786 130.193L159.769 142.475L160.145 158.895C160.224 162.342 159.805 165.782 158.902 169.109L157.72 173.459C157.11 175.702 156.011 177.783 154.502 179.55L153.364 180.883C152.046 182.427 150.293 183.536 148.334 184.065C146.729 184.499 145.041 184.529 143.421 184.151L141.455 183.693C138.826 183.079 136.367 181.885 134.259 180.198L129.205 176.153C126.129 173.69 123.377 170.848 121.015 167.693L117.654 163.203C114.67 159.217 112.019 154.992 109.729 150.571L103.752 139.036L99.7858 147.388L90.4848 163.611C88.4289 167.197 86.0072 170.561 83.2585 173.648C81.0611 176.117 78.6632 178.399 76.0894 180.471L72.0251 183.744L69.3788 185.413C67.5264 186.581 65.459 187.367 63.2982 187.724L62.5648 187.845C61.2793 188.057 59.9676 188.057 58.6821 187.845C56.0839 187.416 53.7012 186.138 51.9064 184.211L50.9583 183.193C49.4854 181.611 48.3483 179.748 47.6156 177.715L47.1296 176.366C46.5433 174.739 46.1425 173.051 45.9346 171.335L45.4311 167.177C44.9848 163.491 44.8816 159.771 45.1228 156.066L45.7517 146.406L48.726 130.193L52.1961 118.893L43.273 117.419L31.4969 114.826C27.4617 113.937 23.5322 112.622 19.7746 110.903L16.1103 109.227C13.7398 108.143 11.5274 106.742 9.53373 105.062L5.44591 101.619C3.60846 100.071 2.28891 97.9977 1.66466 95.6777C1.00012 93.208 1.15846 90.5889 2.1157 88.2172L2.37074 87.5853C3.18853 85.5591 4.47579 83.756 6.12657 82.3245L8.61133 80.1698C10.5585 78.4813 12.7337 77.0754 15.0729 75.9935L19.9602 73.7332C24.253 71.7477 28.7482 70.2332 33.3673 69.2159L44.2645 66.8159Z" fill="#AEAEFF"/>
<ellipse cx="100.778" cy="93.3458" rx="20.8205" ry="20.6343" fill="#F3F340"/>
</svg>
