<svg width="188" height="189" viewBox="0 0 188 189" fill="none" xmlns="http://www.w3.org/2000/svg">
<path d="M44.5555 67.2676L67.3589 65.3024L69.3418 47.6158L71.8204 33.3683L73.6818 27.0436C74.7512 23.4098 76.2066 19.9011 78.0232 16.5773L79.9236 13.1003C81.1248 10.9026 82.6385 8.89072 84.4175 7.12767L87.2915 4.27938C88.8438 2.74088 90.7956 1.66731 92.9262 1.18003C95.0096 0.703539 97.1837 0.806041 99.213 1.47644L99.3385 1.51788C101.128 2.10912 102.756 3.10737 104.095 4.43417L105.763 6.08683C107.252 7.56305 108.525 9.24311 109.543 11.0768L111.463 14.5381C112.793 16.9341 113.923 19.4355 114.843 22.017L116.458 26.554C118.422 32.0688 119.898 37.7454 120.869 43.5185L122.384 52.5288L139.735 45.6507L143.785 44.4801C149.008 42.9703 154.345 41.889 159.744 41.2469L164.025 40.7377H169.005C171.938 40.7377 174.844 41.2928 177.571 42.3737L178.999 42.9396C180.246 43.434 181.41 44.1153 182.452 44.9603L183.275 45.6277C185.246 47.2255 186.565 49.4876 186.986 51.9893C187.209 53.3189 187.173 54.6792 186.878 55.9948L186.333 58.4243C185.345 61.3631 184.036 64.1842 182.43 66.8366L181.334 68.6468C178.728 72.9515 175.603 76.9196 172.028 80.4618L165.017 87.4106L148.162 100.676L151.137 108.045L155.102 120.327L158.077 130.644L160.06 142.927L160.436 159.347C160.515 162.793 160.096 166.233 159.193 169.56L158.011 173.911C157.401 176.154 156.302 178.234 154.793 180.002L153.655 181.335C152.337 182.878 150.584 183.988 148.625 184.517C147.02 184.951 145.332 184.98 143.712 184.603L141.746 184.144C139.117 183.531 136.658 182.337 134.55 180.65L129.496 176.605C126.42 174.142 123.668 171.299 121.306 168.145L117.945 163.655C114.961 159.669 112.31 155.444 110.02 151.023L104.043 139.488L100.077 147.84L90.7758 164.063C88.7199 167.649 86.2982 171.013 83.5495 174.1C81.3521 176.568 78.9542 178.85 76.3803 180.923L72.3161 184.195L69.6699 185.864C67.8175 187.033 65.75 187.818 63.5892 188.175L62.8558 188.296C61.5703 188.509 60.2586 188.509 58.9731 188.296C56.375 187.867 53.9922 186.589 52.1975 184.662L51.2493 183.644C49.7764 182.063 48.6393 180.2 47.9066 178.166L47.4206 176.818C46.8343 175.191 46.4335 173.503 46.2256 171.786L45.7221 167.628C45.2758 163.942 45.1726 160.223 45.4138 156.518L46.0427 146.857L49.017 130.644L52.4871 119.345L43.564 117.871L31.788 115.277C27.7527 114.389 23.8232 113.074 20.0657 111.355L16.4013 109.679C14.0308 108.595 11.8184 107.194 9.82475 105.514L5.73693 102.071C3.89947 100.523 2.57993 98.4494 1.95568 96.1294C1.29113 93.6596 1.44947 91.0406 2.40671 88.6689L2.66175 88.037C3.47955 86.0107 4.76681 84.2077 6.41759 82.7762L8.90235 80.6214C10.8495 78.9329 13.0247 77.527 15.3639 76.4452L20.2512 74.1848C24.544 72.1994 29.0393 70.6848 33.6583 69.6675L44.5555 67.2676Z" fill="#FFA9D4"/>
<ellipse cx="96.1115" cy="92.3233" rx="20.8205" ry="20.6343" fill="#F3F340"/>
</svg>
