<svg width="200" height="202" viewBox="0 0 200 202" fill="none" xmlns="http://www.w3.org/2000/svg">
<path d="M86.7219 80.3545L99.3592 99L113.135 78.6753C118.317 71.0291 122.037 62.4882 124.105 53.4858L126.312 43.8842C127.792 37.4429 127.557 30.7262 125.631 24.4038L124.262 19.9067C122.161 13.0099 117.358 7.25676 110.948 3.95753L110.565 3.76026C107.04 1.94632 103.134 1 99.1696 1C95.0749 1 91.0378 2.01279 87.4265 3.94285C81.2617 7.2377 76.75 12.9709 75.0054 19.7398L73.4988 25.5854C72.062 31.1604 71.8866 36.9857 72.9853 42.6371L74.6884 51.3966C76.7039 61.7625 80.7973 71.6131 86.7219 80.3545Z" fill="#F2CACA" stroke="#F2CACA"/>
<path d="M109.977 78.9218L99.7462 98.9244L124.238 101.059C133.497 101.866 142.822 100.964 151.745 98.3959L161.268 95.6558C167.623 93.8273 173.386 90.3797 177.992 85.6524L181.361 82.1943C186.364 77.0589 189.068 70.1215 188.858 62.9585L188.845 62.4909C188.729 58.5488 187.666 54.69 185.744 51.2392C183.759 47.6747 180.901 44.6436 177.461 42.439C171.592 38.679 164.387 37.5155 157.646 39.2656L151.67 40.817C146.094 42.2645 140.911 44.9261 136.495 48.6105L129.614 54.3503C121.476 61.1392 114.797 69.4961 109.977 78.9218Z" fill="#F2CACA" stroke="#F2CACA"/>
<path d="M90.0234 78.934L100.254 98.9366L75.7622 101.072C66.5034 101.879 57.178 100.976 48.2547 98.4081L38.7317 95.668C32.3773 93.8395 26.6136 90.3919 22.008 85.6646L18.6391 82.2065C13.636 77.0711 10.932 70.1337 11.1416 62.9707L11.1553 62.5031C11.2707 58.561 12.334 54.7022 14.2558 51.2514C16.2409 47.6869 19.0986 44.6558 22.5393 42.4512C28.4075 38.6912 35.6127 37.5277 42.3542 39.2778L48.33 40.8292C53.906 42.2767 59.0886 44.9383 63.5052 48.6227L70.3856 54.3625C78.5238 61.1514 85.2027 69.5083 90.0234 78.934Z" fill="#F2CACA" stroke="#F2CACA"/>
<path d="M86.7219 80.3545L99.3592 99L113.135 78.6753C118.317 71.0291 122.037 62.4882 124.105 53.4858L126.312 43.8842C127.792 37.4429 127.557 30.7262 125.631 24.4038L124.262 19.9067C122.161 13.0099 117.358 7.25676 110.948 3.95753L110.565 3.76026C107.04 1.94632 103.134 1 99.1696 1C95.0749 1 91.0378 2.01279 87.4265 3.94285C81.2617 7.2377 76.75 12.9709 75.0054 19.7398L73.4988 25.5854C72.062 31.1604 71.8866 36.9857 72.9853 42.6371L74.6884 51.3966C76.7039 61.7625 80.7973 71.6131 86.7219 80.3545Z" fill="#F2CACA" stroke="#F2CACA"/>
<path d="M109.977 78.9218L99.7462 98.9244L124.238 101.059C133.497 101.866 142.822 100.964 151.745 98.3959L161.268 95.6558C167.623 93.8273 173.386 90.3797 177.992 85.6524L181.361 82.1943C186.364 77.0589 189.068 70.1215 188.858 62.9585L188.845 62.4909C188.729 58.5488 187.666 54.69 185.744 51.2392C183.759 47.6747 180.901 44.6436 177.461 42.439C171.592 38.679 164.387 37.5155 157.646 39.2656L151.67 40.817C146.094 42.2645 140.911 44.9261 136.495 48.6105L129.614 54.3503C121.476 61.1392 114.797 69.4961 109.977 78.9218Z" fill="#F2CACA" stroke="#F2CACA"/>
<path d="M90.0234 78.934L100.254 98.9366L75.7622 101.072C66.5034 101.879 57.178 100.976 48.2547 98.4081L38.7317 95.668C32.3773 93.8395 26.6136 90.3919 22.008 85.6646L18.6391 82.2065C13.636 77.0711 10.932 70.1337 11.1416 62.9707L11.1553 62.5031C11.2707 58.561 12.334 54.7022 14.2558 51.2514C16.2409 47.6869 19.0986 44.6558 22.5393 42.4512C28.4075 38.6912 35.6127 37.5277 42.3542 39.2778L48.33 40.8292C53.906 42.2767 59.0886 44.9383 63.5052 48.6227L70.3856 54.3625C78.5238 61.1514 85.2027 69.5083 90.0234 78.934Z" fill="#F2CACA" stroke="#F2CACA"/>
<path d="M86.6819 122.514L99.3592 104L113.171 124.171C118.329 131.703 122.035 140.132 124.099 149.024L126.299 158.5C127.787 164.909 127.551 171.597 125.616 177.885L124.299 182.166C122.175 189.069 117.343 194.815 110.908 198.093L110.576 198.263C107.043 200.062 103.114 201 99.1491 201C95.0808 201 91.0528 200.006 87.4566 198.104C81.2675 194.83 76.7381 189.106 74.9738 182.33L73.5101 176.709C72.0662 171.164 71.8899 165.365 72.9944 159.742L74.6933 151.094C76.7052 140.851 80.7845 131.127 86.6819 122.514Z" fill="#F2CACA" stroke="#F2CACA"/>
<path d="M109.972 123.303L99.7462 103.37L124.228 101.243C133.493 100.437 142.823 101.338 151.749 103.898L161.277 106.632C167.626 108.453 173.384 111.887 177.986 116.597L181.375 120.064C186.369 125.176 189.068 132.084 188.859 139.221L188.845 139.697C188.729 143.626 187.666 147.472 185.744 150.913C183.759 154.466 180.899 157.49 177.46 159.687C171.595 163.433 164.394 164.597 157.665 162.855L151.663 161.302C146.091 159.86 140.913 157.209 136.5 153.538L129.617 147.813C121.477 141.043 114.796 132.707 109.972 123.303Z" fill="#F2CACA" stroke="#F2CACA"/>
<path d="M90.0284 123.291L100.254 103.358L75.7722 101.23C66.5066 100.425 57.1768 101.325 48.2507 103.886L38.7235 106.619C32.3741 108.44 26.6157 111.875 22.0136 116.584L18.6254 120.052C13.631 125.163 10.932 132.072 11.1414 139.209L11.1554 139.684C11.2707 143.613 12.3341 147.46 14.2558 150.9C16.2408 154.454 19.101 157.477 22.5403 159.674C28.4049 163.421 35.6057 164.584 42.3353 162.842L48.3367 161.289C53.9086 159.847 59.0865 157.196 63.4996 153.525L70.3827 147.801C78.523 141.03 85.2042 132.695 90.0284 123.291Z" fill="#F2CACA" stroke="#F2CACA"/>
<rect x="74.3301" y="91" width="49.2184" height="18" fill="#F2CACA"/>
<ellipse cx="99.4427" cy="98" rx="13.058" ry="13" fill="#F3F340"/>
</svg>
