<svg width="187" height="189" viewBox="0 0 187 189" fill="none" xmlns="http://www.w3.org/2000/svg">
<path d="M43.6239 66.8159L66.4272 64.8508L68.4101 47.1642L70.8888 32.9167L72.7501 26.5919C73.8195 22.9582 75.275 19.4494 77.0916 16.1256L78.992 12.6487C80.1931 10.4509 81.7069 8.43906 83.4858 6.67601L86.3598 3.82772C87.9122 2.28921 89.864 1.21565 91.9946 0.728365C94.078 0.251878 96.2521 0.354381 98.2814 1.02478L98.4068 1.06622C100.197 1.65746 101.825 2.65571 103.164 3.98251L104.831 5.63517C106.321 7.11139 107.593 8.79145 108.611 10.6251L110.532 14.0864C111.861 16.4825 112.992 18.9839 113.911 21.5653L115.527 26.1024C117.491 31.6172 118.967 37.2938 119.938 43.0668L121.453 52.0771L138.803 45.199L142.853 44.0284C148.076 42.5186 153.414 41.4373 158.812 40.7952L163.094 40.2861H168.073C171.006 40.2861 173.913 40.8412 176.639 41.9221L178.067 42.488C179.314 42.9823 180.479 43.6637 181.521 44.5086L182.344 45.176C184.314 46.7738 185.634 49.0359 186.054 51.5377C186.278 52.8672 186.241 54.2276 185.946 55.5432L185.401 57.9726C184.413 60.9115 183.104 63.7326 181.498 66.385L180.402 68.1951C177.796 72.4998 174.671 76.4679 171.097 80.0101L164.085 86.959L147.231 100.224L150.205 107.593L154.171 119.876L157.145 130.193L159.128 142.475L159.504 158.895C159.584 162.342 159.165 165.782 158.261 169.109L157.079 173.459C156.47 175.702 155.371 177.783 153.861 179.55L152.723 180.883C151.406 182.427 149.652 183.536 147.693 184.065C146.088 184.499 144.4 184.529 142.78 184.151L140.814 183.693C138.185 183.079 135.726 181.885 133.618 180.198L128.565 176.153C125.488 173.69 122.736 170.848 120.375 167.693L117.013 163.203C114.029 159.217 111.379 154.992 109.088 150.571L103.111 139.036L99.1451 147.388L89.8442 163.611C87.7882 167.197 85.3666 170.561 82.6179 173.648C80.4205 176.117 78.0226 178.399 75.4487 180.471L71.3845 183.744L68.7382 185.413C66.8858 186.581 64.8184 187.367 62.6576 187.724L61.9241 187.845C60.6386 188.057 59.327 188.057 58.0415 187.845C55.4433 187.416 53.0606 186.138 51.2658 184.211L50.3177 183.193C48.8448 181.611 47.7077 179.748 46.975 177.715L46.4889 176.366C45.9027 174.739 45.5018 173.051 45.294 171.335L44.7905 167.177C44.3442 163.491 44.241 159.771 44.4822 156.066L45.111 146.406L48.0854 130.193L51.5555 118.893L42.6324 117.419L30.8563 114.826C26.821 113.937 22.8916 112.622 19.134 110.903L15.4697 109.227C13.0991 108.143 10.8868 106.742 8.89311 105.062L4.80529 101.619C2.96783 100.071 1.64829 97.9977 1.02403 95.6777C0.359492 93.208 0.51783 90.5889 1.47507 88.2172L1.73011 87.5853C2.54791 85.5591 3.83517 83.756 5.48595 82.3245L7.97071 80.1698C9.91784 78.4813 12.0931 77.0754 14.4323 75.9935L19.3195 73.7332C23.6124 71.7477 28.1076 70.2332 32.7267 69.2159L43.6239 66.8159Z" fill="#FF6D90"/>
<ellipse cx="97.1623" cy="91.3809" rx="20.8205" ry="20.6343" fill="#F3F340"/>
</svg>
