<svg width="180" height="180" viewBox="0 0 180 180" fill="none" xmlns="http://www.w3.org/2000/svg">
<path d="M176.984 83.6253C176.984 83.6253 176.305 83.0681 175.03 82.1691C174.262 81.6175 173.48 81.0858 172.684 80.5744C171.642 79.8816 170.584 79.2143 169.509 78.5732C167.489 77.3587 165.097 76.0263 162.392 74.6564C164.309 72.3075 165.955 70.119 167.309 68.1894C168.031 67.1677 168.728 66.1283 169.399 65.0722C169.919 64.2821 170.419 63.4787 170.897 62.6629C171.697 61.3241 172.092 60.5392 172.092 60.5392C172.322 60.0756 172.532 59.5437 172.675 59.026C173.886 54.6378 171.31 50.0994 166.922 48.8884C166.922 48.8884 166.074 48.6549 164.545 48.3497C163.619 48.157 162.688 47.9884 161.753 47.8441C160.52 47.6332 159.282 47.4527 158.039 47.303C156.499 47.1119 154.786 46.9398 152.936 46.7999C153.43 45.1629 153.885 43.5145 154.301 41.8559C154.607 40.643 154.884 39.4227 155.13 38.1961C155.332 37.2718 155.509 36.3424 155.662 35.4089C155.928 33.8722 156.014 32.9976 156.014 32.9976C156.062 32.4823 156.067 31.9105 156.014 31.3761C155.566 26.8461 151.531 23.5368 147.001 23.9848C147.001 23.9848 146.126 24.0711 144.59 24.3368C143.656 24.49 142.727 24.6673 141.803 24.8687C140.715 25.0876 139.485 25.3586 138.143 25.6984C135.855 26.2684 133.222 27.0177 130.341 27.9615C130.034 24.9457 129.651 22.2346 129.244 19.9125C129.01 18.548 128.759 17.3131 128.518 16.2308C128.327 15.3044 128.112 14.3832 127.874 13.468C127.493 11.9557 127.217 11.1215 127.217 11.1215C127.044 10.6083 126.824 10.1121 126.559 9.63947C124.312 5.68079 119.282 4.29281 115.323 6.5398C115.323 6.5398 114.559 6.9737 113.262 7.83954C112.471 8.35813 111.693 8.89719 110.93 9.45616C109.909 10.1791 108.906 10.927 107.922 11.6993C106.574 12.7521 105.252 13.8368 103.957 14.9525C103.149 13.4455 102.305 11.9579 101.426 10.4912C100.785 9.41666 100.118 8.35809 99.4247 7.31643C98.9136 6.52057 98.3819 5.73816 97.83 4.96998C96.931 3.6956 96.3738 3.01599 96.3738 3.01599C96.0279 2.59913 95.644 2.21527 95.2271 1.86934C91.7073 -1.01728 86.5142 -0.503917 83.6276 3.01599C83.6276 3.01599 83.0704 3.6956 82.1714 4.96998C81.6197 5.73823 81.088 6.52065 80.5768 7.31643C79.8839 8.3582 79.2166 9.41676 78.5755 10.4912C77.3596 12.5134 76.0263 14.9076 74.6554 17.6148C72.306 15.6969 70.1175 14.0496 68.1875 12.6943C67.1662 11.9721 66.1275 11.2749 65.0722 10.6033C64.2825 10.0831 63.4794 9.58338 62.6639 9.10466C61.3261 8.30415 60.5417 7.90925 60.5417 7.90925C60.0541 7.66698 59.5448 7.47079 59.0207 7.32325C54.634 6.11566 50.0986 8.6927 48.891 13.0794C48.891 13.0794 48.658 13.9263 48.3538 15.4551C48.1987 16.221 48.0125 17.1634 47.8497 18.2462C47.6392 19.4792 47.4593 20.7172 47.31 21.9592C47.1018 23.6591 46.9344 25.3638 46.8079 27.0718C45.1683 26.576 43.5171 26.1194 41.8557 25.7023C40.6431 25.3952 39.4231 25.1181 38.1968 24.8711C37.273 24.6697 36.3441 24.492 35.4112 24.3383C33.875 24.0721 33.0009 23.9853 33.0009 23.9853C32.4588 23.9343 31.9132 23.9343 31.3711 23.9853C26.8435 24.4353 23.5377 28.4705 23.9881 32.9981C23.9881 32.9981 24.0749 33.8722 24.3411 35.4084C24.4717 36.1787 24.6365 37.125 24.8739 38.1941C25.0933 39.2813 25.3649 40.5113 25.7052 41.853C26.2765 44.1434 27.0278 46.7799 27.9741 49.665C24.9534 49.9702 22.2389 50.3534 19.9139 50.76C18.5494 50.9935 17.315 51.2441 16.2327 51.4845C15.1592 51.7014 14.2275 51.9345 13.4704 52.1275C11.9586 52.5073 11.1245 52.7827 11.1245 52.7827C10.6084 52.9563 10.1096 53.1776 9.63463 53.4438C5.67891 55.6918 4.29435 60.7211 6.5423 64.6773C6.5423 64.6773 6.97619 65.4412 7.84251 66.7371C8.36133 67.5277 8.90054 68.3048 9.45961 69.0674C10.1827 70.088 10.9308 71.0907 11.7032 72.0745C12.6592 73.3006 13.7507 74.6349 14.9632 76.0449C13.4534 76.8538 11.9629 77.6984 10.4931 78.578C9.41879 79.2185 8.36024 79.8852 7.31843 80.5774C6.5227 81.0881 5.7403 81.6194 4.972 82.1706C3.69763 83.0686 3.01803 83.6253 3.01803 83.6253C2.59899 83.973 2.21316 84.3588 1.86554 84.7778C-1.01764 88.2978 -0.501844 93.4884 3.01803 96.3716C3.01803 96.3716 3.69763 96.9284 4.972 97.8264C5.60919 98.2788 6.39507 98.8312 7.31843 99.4196C8.36013 100.112 9.41868 100.779 10.4931 101.419C12.5168 102.634 14.9125 103.968 17.6216 105.339C15.7018 107.69 14.0525 109.881 12.6962 111.812C11.9739 112.834 11.2767 113.873 10.6053 114.928C10.0851 115.718 9.58536 116.521 9.10664 117.337C8.30614 118.674 7.91125 119.459 7.91125 119.459C7.66898 119.946 7.47279 120.456 7.32525 120.98C6.11767 125.367 8.69469 129.902 13.0819 131.11C13.0819 131.11 13.9287 131.343 15.4575 131.647C16.2234 131.802 17.1658 131.988 18.2486 132.151C19.3416 132.338 20.5872 132.526 21.9615 132.691C23.6615 132.899 25.3662 133.067 27.0741 133.193C26.5783 134.832 26.1217 136.483 25.7047 138.144C25.3976 139.357 25.1204 140.577 24.8735 141.803C24.672 142.727 24.4943 143.656 24.3406 144.589C24.0749 146.125 23.9876 146.999 23.9876 146.999C23.9369 147.541 23.9369 148.087 23.9876 148.629C24.4376 153.157 28.4728 156.463 33.0009 156.013C33.0009 156.013 33.875 155.926 35.4112 155.66C36.1814 155.529 37.1277 155.364 38.1968 155.127C39.284 154.907 40.514 154.636 41.8557 154.296C44.146 153.724 46.7825 152.973 49.6676 152.027C49.9728 155.047 50.356 157.762 50.7626 160.088C50.974 161.321 51.2155 162.548 51.4871 163.769C51.704 164.843 51.937 165.774 52.1301 166.531C52.5099 168.043 52.7853 168.877 52.7853 168.877C52.9589 169.393 53.1802 169.892 53.4464 170.367C55.6943 174.323 60.7236 175.708 64.6798 173.46C64.6798 173.46 65.4437 173.026 66.7395 172.159C67.53 171.64 68.3071 171.101 69.0699 170.542C70.0905 169.819 71.0932 169.071 72.0769 168.298C73.4261 167.243 74.7501 166.156 76.0477 165.038C76.8564 166.547 77.7008 168.038 78.5804 169.507C79.2209 170.582 79.8875 171.64 80.5797 172.682C81.0903 173.478 81.6216 174.26 82.1729 175.028C83.0709 176.303 83.6276 176.982 83.6276 176.982C83.9753 177.401 84.3611 177.787 84.7801 178.134C88.3 181.018 93.4906 180.502 96.3738 176.982C96.3738 176.982 96.9305 176.302 97.8286 175.028C98.3796 174.26 98.9109 173.478 99.4218 172.682C100.114 171.64 100.781 170.582 101.421 169.507C102.635 167.485 103.967 165.092 105.337 162.386C107.688 164.304 109.879 165.951 111.81 167.307C112.832 168.029 113.871 168.726 114.927 169.397C115.717 169.917 116.521 170.417 117.337 170.895C118.675 171.695 119.46 172.09 119.46 172.09C119.924 172.32 120.456 172.53 120.973 172.673C125.362 173.884 129.9 171.308 131.111 166.919C131.111 166.919 131.344 166.072 131.649 164.543C131.805 163.777 131.991 162.835 132.155 161.751C132.341 160.657 132.531 159.412 132.696 158.037C132.887 156.497 133.059 154.784 133.199 152.933C134.836 153.428 136.484 153.883 138.142 154.299C139.484 154.638 140.715 154.909 141.802 155.128C142.871 155.365 143.818 155.53 144.589 155.66C146.125 155.925 147 156.012 147 156.012C147.515 156.059 148.088 156.064 148.622 156.012C153.152 155.564 156.461 151.528 156.013 146.998C156.013 146.998 155.927 146.124 155.661 144.587C155.508 143.654 155.33 142.724 155.129 141.8C154.883 140.573 154.606 139.353 154.299 138.14C153.729 135.852 152.98 133.219 152.036 130.338C155.052 130.032 157.763 129.649 160.086 129.242C161.451 129.008 162.685 128.757 163.768 128.515C164.842 128.298 165.774 128.064 166.531 127.871C168.043 127.49 168.877 127.214 168.877 127.214C169.391 127.041 169.887 126.821 170.36 126.557C174.318 124.31 175.706 119.279 173.459 115.32C173.459 115.32 173.025 114.556 172.159 113.259C171.641 112.468 171.102 111.69 170.543 110.927C169.82 109.906 169.072 108.903 168.3 107.919C167.247 106.571 166.162 105.249 165.047 103.954C166.553 103.146 168.041 102.302 169.507 101.423C170.582 100.782 171.64 100.115 172.682 99.422C173.478 98.9109 174.26 98.3792 175.028 97.8273C176.303 96.9284 176.982 96.3711 176.982 96.3711C177.399 96.0252 177.783 95.6413 178.129 95.2245C181.018 91.705 180.504 86.5115 176.984 83.6253Z" fill="#FFF387"/>
<path d="M90 136.16C115.494 136.16 136.16 115.493 136.16 89.9994C136.16 64.5057 115.494 43.8389 90 43.8389C64.5064 43.8389 43.8398 64.5057 43.8398 89.9994C43.8398 115.493 64.5064 136.16 90 136.16Z" fill="#8D6A51"/>
</svg>
