<svg width="178" height="187" viewBox="0 0 178 187" fill="none" xmlns="http://www.w3.org/2000/svg">
<path d="M103.611 24.8574L80.5005 35.7408C80.3207 35.8255 80.1754 35.9693 80.0889 36.1483L76.5521 43.4655C74.8986 46.8866 74.3602 50.7403 75.013 54.4835C75.5666 57.6586 76.9556 60.6289 79.0372 63.0895L81.6604 66.1902C85.6402 70.8945 90.853 74.3957 96.7131 76.3005L105.622 79.1964C110.663 80.8349 116.137 80.5031 120.943 78.2678C128.747 74.6381 133.54 66.6072 133.029 58.0155L132.897 55.7879C132.893 55.7283 132.879 55.6697 132.854 55.6154L121.97 31.7681L120.554 29.0452C119.526 27.0679 117.958 25.4224 116.033 24.2995L115.8 24.1633C114.735 23.5425 113.568 23.1177 112.354 22.9092C110.393 22.5723 108.376 22.811 106.548 23.5962L103.611 24.8574Z" fill="#E98BAD" stroke="#E98BAD"/>
<path d="M30.8204 57.573L42.7776 25.8079C43.2893 24.4486 44.1898 23.2699 45.3668 22.4189C46.3517 21.7068 47.4968 21.2483 48.7009 21.084L49.7483 20.941C51.6609 20.6799 53.6085 20.8993 55.4151 21.5794L59.3343 23.0547C60.9026 23.645 62.4151 24.3741 63.8538 25.2333L68.1615 27.8057C72.8148 30.5846 77.1892 33.8057 81.224 37.4244L85.9469 41.6602L88.0901 43.9028C91.5827 47.5574 94.6986 51.5543 97.3907 55.833C100.131 60.1882 102.418 64.8127 104.215 69.6341L104.498 70.3921C106.039 74.5239 107.248 78.7715 108.115 83.0949L110.038 92.6774L110.186 94.2275C110.827 100.938 110.688 107.699 109.772 114.378L108.802 119.037C107.75 124.091 106.309 129.056 104.49 133.888L102.759 138.485C101.743 141.185 100.509 143.798 99.0681 146.297L97.5545 148.923C96.0512 151.532 94.1858 153.914 92.0137 155.999L91.1076 156.869C87.8498 159.996 83.8581 162.253 79.4996 163.434C74.8309 164.7 69.9076 164.684 65.2469 163.39L63.9088 163.019C60.6502 162.114 57.5556 160.698 54.7403 158.825L46.9023 153.608C40.5437 149.376 34.9619 143.93 30.5462 137.698C25.562 130.663 22.0549 122.565 20.378 114.108C18.9247 106.779 18.8246 99.245 20.0827 91.8794L20.6229 88.7167C21.4659 83.7812 22.7783 78.9374 24.5422 74.2515L30.8204 57.573Z" fill="#FDBDD3" stroke="#FDBDD3"/>
<path d="M156.322 104.815L168.28 73.0501C168.791 71.6907 168.892 70.2109 168.568 68.795C168.297 67.6102 167.738 66.5104 166.942 65.5928L166.248 64.7947C164.983 63.3372 163.374 62.2179 161.567 61.5378L157.648 60.0625C156.08 59.4722 154.462 59.0229 152.814 58.7201L147.879 57.8135C142.548 56.8342 137.136 56.3712 131.716 56.431L125.373 56.5011L122.283 56.7738C117.247 57.2181 112.269 58.1682 107.424 59.6097C102.492 61.0769 97.7229 63.0455 93.1923 65.4848L92.4799 65.8683C88.5973 67.9586 84.887 70.3542 81.384 73.0326L73.62 78.9688L72.4865 80.0366C67.5799 84.6584 63.2254 89.8333 59.5102 95.4576L57.1667 99.6003C54.6248 104.094 52.4348 108.777 50.6161 113.608L48.8854 118.206C47.8692 120.906 47.0745 123.684 46.5092 126.513L45.9153 129.485C45.3254 132.437 45.157 135.458 45.4151 138.458L45.5228 139.709C45.91 144.208 47.422 148.538 49.9198 152.3C52.5954 156.33 56.3066 159.565 60.6638 161.665L61.9148 162.268C64.9612 163.737 68.2211 164.713 71.5732 165.161L80.9054 166.408C88.4763 167.419 96.2637 167.006 103.693 165.232C112.079 163.23 120.055 159.455 126.893 154.203C132.819 149.651 137.862 144.054 141.773 137.687L143.452 134.953C146.073 130.686 148.28 126.18 150.044 121.494L156.322 104.815Z" fill="#F5AFC7" stroke="#F5AFC7"/>
</svg>
